<svg width="558" height="95" viewBox="0 0 558 95" fill="none" xmlns="http://www.w3.org/2000/svg">
<path d="M34.944 1.79202C50.2187 1.79202 61.568 5.63201 68.992 13.312C76.416 20.9067 80.128 31.8293 80.128 46.08C80.128 55.3813 78.2934 63.5307 74.624 70.528C71.04 77.44 65.792 82.816 58.88 86.656C51.968 90.496 43.6054 92.416 33.792 92.416C32.512 92.416 30.8054 92.3733 28.672 92.288C26.5387 92.2027 24.32 92.16 22.016 92.16C19.7974 92.0747 17.7494 92.032 15.872 92.032C12.8854 92.032 9.94136 92.0747 7.04002 92.16C4.13869 92.16 1.79202 92.2453 2.38419e-05 92.416V89.856C2.90136 89.6853 5.07736 89.344 6.52802 88.832C8.06402 88.32 9.08802 87.296 9.60002 85.76C10.112 84.224 10.368 81.92 10.368 78.848V15.36C10.368 12.2027 10.112 9.89868 9.60002 8.44801C9.08802 6.91201 8.06402 5.88801 6.52802 5.37601C5.07736 4.77868 2.90136 4.43734 2.38419e-05 4.35201V1.79202C1.79202 1.87735 4.13869 2.00535 7.04002 2.17601C9.94136 2.26134 12.8 2.26134 15.616 2.17601C18.6027 2.09068 21.9734 2.00535 25.728 1.92001C29.4827 1.83468 32.5547 1.79202 34.944 1.79202ZM31.744 4.09601C27.8187 4.09601 25.2587 4.82134 24.064 6.27201C22.8694 7.72268 22.272 10.6667 22.272 15.104V79.104C22.272 83.5413 22.8694 86.4853 24.064 87.936C25.344 89.3867 27.9467 90.112 31.872 90.112C41.1734 90.112 48.384 88.448 53.504 85.12C58.624 81.7067 62.208 76.7573 64.256 70.272C66.304 63.7867 67.328 55.8933 67.328 46.592C67.328 37.0347 66.176 29.1413 63.872 22.912C61.6534 16.5973 57.9414 11.904 52.736 8.83201C47.616 5.67467 40.6187 4.09601 31.744 4.09601ZM170.089 1.79202V4.35201C167.188 4.43734 164.969 4.86401 163.433 5.63201C161.982 6.40001 161.001 7.63734 160.489 9.34401C159.977 11.0507 159.721 13.4827 159.721 16.64V55.168C159.721 61.1413 159.337 66.3467 158.569 70.784C157.801 75.2213 156.436 79.0613 154.473 82.304C152.34 85.888 149.225 88.7893 145.129 91.008C141.033 93.1413 136.34 94.208 131.049 94.208C126.953 94.208 123.028 93.696 119.273 92.672C115.604 91.7333 112.361 89.9413 109.545 87.296C107.07 84.9067 105.108 82.3893 103.657 79.744C102.292 77.0987 101.353 73.856 100.841 70.016C100.329 66.176 100.073 61.3547 100.073 55.552V15.36C100.073 12.2027 99.817 9.89868 99.305 8.44801C98.793 6.91201 97.769 5.88801 96.233 5.37601C94.7824 4.77868 92.6064 4.43734 89.705 4.35201V1.79202C91.497 1.87735 93.8437 1.96268 96.745 2.04801C99.6464 2.13334 102.761 2.17601 106.089 2.17601C109.076 2.17601 112.02 2.13334 114.921 2.04801C117.908 1.96268 120.382 1.87735 122.345 1.79202V4.35201C119.444 4.43734 117.225 4.77868 115.689 5.37601C114.238 5.88801 113.257 6.91201 112.745 8.44801C112.233 9.89868 111.977 12.2027 111.977 15.36V57.728C111.977 62.08 112.19 66.2187 112.617 70.144C113.044 73.984 113.897 77.3973 115.177 80.384C116.542 83.2853 118.59 85.5893 121.321 87.296C124.052 88.9173 127.678 89.728 132.201 89.728C138.686 89.728 143.678 88.32 147.177 85.504C150.761 82.6027 153.236 78.6347 154.601 73.6C156.052 68.5653 156.777 62.8907 156.777 56.576V16.64C156.777 13.4827 156.393 11.0507 155.625 9.34401C154.942 7.63734 153.748 6.40001 152.041 5.63201C150.334 4.86401 148.03 4.43734 145.129 4.35201V1.79202C146.665 1.87735 148.67 1.96268 151.145 2.04801C153.705 2.13334 156.052 2.17601 158.185 2.17601C160.404 2.17601 162.58 2.13334 164.713 2.04801C166.932 1.96268 168.724 1.87735 170.089 1.79202ZM220.237 7.62939e-06C228.344 7.62939e-06 235.426 1.83468 241.485 5.50401C247.629 9.17334 252.365 14.464 255.693 21.376C259.106 28.2027 260.813 36.5227 260.813 46.336C260.813 55.8933 259.064 64.256 255.565 71.424C252.152 78.592 247.373 84.1813 241.229 88.192C235.085 92.2027 228.045 94.208 220.109 94.208C212.002 94.208 204.877 92.3733 198.733 88.704C192.674 85.0347 187.938 79.744 184.525 72.832C181.197 65.92 179.533 57.6 179.533 47.872C179.533 38.3147 181.282 29.952 184.781 22.784C188.28 15.616 193.058 10.0267 199.117 6.01601C205.261 2.00534 212.301 7.62939e-06 220.237 7.62939e-06ZM219.725 2.30401C214.178 2.30401 209.357 4.22401 205.261 8.06401C201.165 11.904 197.965 17.1947 195.661 23.936C193.442 30.6773 192.333 38.4853 192.333 47.36C192.333 56.4053 193.57 64.2987 196.045 71.04C198.605 77.696 202.018 82.8587 206.285 86.528C210.637 90.112 215.416 91.904 220.621 91.904C226.168 91.904 230.989 89.984 235.085 86.144C239.181 82.304 242.338 77.0133 244.557 70.272C246.861 63.4453 248.013 55.6373 248.013 46.848C248.013 37.7173 246.733 29.824 244.173 23.168C241.698 16.512 238.328 11.392 234.061 7.80801C229.794 4.13868 225.016 2.30401 219.725 2.30401Z" fill="#274F4A"/>
<path d="M358.379 92.416V89.856C361.28 89.6853 363.456 89.344 364.907 88.832C366.443 88.32 367.467 87.296 367.979 85.76C368.491 84.224 368.747 81.92 368.747 78.848V15.36C368.747 12.2027 368.491 9.89868 367.979 8.44801C367.467 6.91201 366.443 5.88801 364.907 5.37601C363.456 4.77868 361.28 4.43734 358.379 4.35201V1.79202C360.342 1.87735 362.816 1.96268 365.803 2.04801C368.79 2.13334 371.734 2.17601 374.635 2.17601C377.963 2.17601 381.078 2.13334 383.979 2.04801C386.88 1.96268 389.227 1.87735 391.019 1.79202V4.35201C388.118 4.43734 385.899 4.77868 384.363 5.37601C382.912 5.88801 381.931 6.91201 381.419 8.44801C380.907 9.89868 380.651 12.2027 380.651 15.36V78.848C380.651 81.92 380.907 84.224 381.419 85.76C381.931 87.296 382.912 88.32 384.363 88.832C385.899 89.344 388.118 89.6853 391.019 89.856V92.416C389.227 92.2453 386.88 92.16 383.979 92.16C381.078 92.0747 377.963 92.032 374.635 92.032C371.734 92.032 368.79 92.0747 365.803 92.16C362.816 92.16 360.342 92.2453 358.379 92.416ZM304.875 92.416V89.856C307.776 89.6853 309.952 89.344 311.403 88.832C312.939 88.32 313.963 87.296 314.475 85.76C314.987 84.224 315.243 81.92 315.243 78.848V15.36C315.243 12.2027 314.987 9.89868 314.475 8.44801C313.963 6.91201 312.939 5.88801 311.403 5.37601C309.952 4.77868 307.776 4.43734 304.875 4.35201V1.79202C306.667 1.87735 309.014 1.96268 311.915 2.04801C314.816 2.13334 317.931 2.17601 321.259 2.17601C324.246 2.17601 327.19 2.13334 330.091 2.04801C333.078 1.96268 335.552 1.87735 337.515 1.79202V4.35201C334.614 4.43734 332.395 4.77868 330.859 5.37601C329.408 5.88801 328.427 6.91201 327.915 8.44801C327.403 9.89868 327.147 12.2027 327.147 15.36V78.848C327.147 81.92 327.403 84.224 327.915 85.76C328.427 87.296 329.408 88.32 330.859 88.832C332.395 89.344 334.614 89.6853 337.515 89.856V92.416C335.552 92.2453 333.078 92.16 330.091 92.16C327.19 92.0747 324.246 92.032 321.259 92.032C317.931 92.032 314.816 92.0747 311.915 92.16C309.014 92.16 306.667 92.2453 304.875 92.416ZM322.667 48.128V45.568H373.227V48.128H322.667ZM480.214 1.79202V4.35201C477.313 4.43734 475.094 4.86401 473.558 5.63201C472.107 6.40001 471.126 7.63734 470.614 9.34401C470.102 11.0507 469.846 13.4827 469.846 16.64V55.168C469.846 61.1413 469.462 66.3467 468.694 70.784C467.926 75.2213 466.561 79.0613 464.598 82.304C462.465 85.888 459.35 88.7893 455.254 91.008C451.158 93.1413 446.465 94.208 441.174 94.208C437.078 94.208 433.153 93.696 429.398 92.672C425.729 91.7333 422.486 89.9413 419.67 87.296C417.195 84.9067 415.233 82.3893 413.782 79.744C412.417 77.0987 411.478 73.856 410.966 70.016C410.454 66.176 410.198 61.3547 410.198 55.552V15.36C410.198 12.2027 409.942 9.89868 409.43 8.44801C408.918 6.91201 407.894 5.88801 406.358 5.37601C404.907 4.77868 402.731 4.43734 399.83 4.35201V1.79202C401.622 1.87735 403.969 1.96268 406.87 2.04801C409.771 2.13334 412.886 2.17601 416.214 2.17601C419.201 2.17601 422.145 2.13334 425.046 2.04801C428.033 1.96268 430.507 1.87735 432.47 1.79202V4.35201C429.569 4.43734 427.35 4.77868 425.814 5.37601C424.363 5.88801 423.382 6.91201 422.87 8.44801C422.358 9.89868 422.102 12.2027 422.102 15.36V57.728C422.102 62.08 422.315 66.2187 422.742 70.144C423.169 73.984 424.022 77.3973 425.302 80.384C426.667 83.2853 428.715 85.5893 431.446 87.296C434.177 88.9173 437.803 89.728 442.326 89.728C448.811 89.728 453.803 88.32 457.302 85.504C460.886 82.6027 463.361 78.6347 464.726 73.6C466.177 68.5653 466.902 62.8907 466.902 56.576V16.64C466.902 13.4827 466.518 11.0507 465.75 9.34401C465.067 7.63734 463.873 6.40001 462.166 5.63201C460.459 4.86401 458.155 4.43734 455.254 4.35201V1.79202C456.79 1.87735 458.795 1.96268 461.27 2.04801C463.83 2.13334 466.177 2.17601 468.31 2.17601C470.529 2.17601 472.705 2.13334 474.838 2.04801C477.057 1.96268 478.849 1.87735 480.214 1.79202ZM489 1.79202C490.792 1.87735 493.139 1.96268 496.04 2.04801C498.941 2.13334 501.8 2.17601 504.616 2.17601C508.627 2.17601 512.467 2.13334 516.136 2.04801C519.805 1.96268 522.408 1.92001 523.944 1.92001C532.904 1.92001 539.645 3.79735 544.168 7.55201C548.691 11.3067 550.952 16.128 550.952 22.016C550.952 25.0027 550.312 27.9467 549.032 30.848C547.837 33.664 545.789 36.2667 542.888 38.656C540.072 40.96 536.275 42.8373 531.496 44.288V44.544C538.237 45.3973 543.485 47.0187 547.24 49.408C551.08 51.712 553.768 54.4427 555.304 57.6C556.84 60.7573 557.608 64.0853 557.608 67.584C557.608 72.448 556.371 76.7573 553.896 80.512C551.507 84.1813 548.008 87.0827 543.4 89.216C538.792 91.3493 533.288 92.416 526.888 92.416C525.011 92.416 522.195 92.3733 518.44 92.288C514.685 92.1173 510.163 92.032 504.872 92.032C501.885 92.032 498.941 92.0747 496.04 92.16C493.139 92.16 490.792 92.2453 489 92.416V89.856C491.901 89.6853 494.077 89.344 495.528 88.832C497.064 88.32 498.088 87.296 498.6 85.76C499.112 84.224 499.368 81.92 499.368 78.848V15.36C499.368 12.2027 499.112 9.89868 498.6 8.44801C498.088 6.91201 497.064 5.88801 495.528 5.37601C494.077 4.77868 491.901 4.43734 489 4.35201V1.79202ZM520.744 4.35201C516.819 4.35201 514.259 5.07735 513.064 6.52802C511.869 7.97868 511.272 10.9227 511.272 15.36V78.848C511.272 81.8347 511.528 84.096 512.04 85.632C512.552 87.168 513.491 88.192 514.856 88.704C516.221 89.216 518.227 89.472 520.872 89.472C529.235 89.472 535.293 87.552 539.048 83.712C542.888 79.7867 544.808 74.24 544.808 67.072C544.808 60.5013 543.016 55.424 539.432 51.84C535.933 48.256 530.131 46.464 522.024 46.464H508.84C508.84 46.464 508.84 46.1227 508.84 45.44C508.84 44.672 508.84 44.288 508.84 44.288H519.848C524.883 44.288 528.765 43.3493 531.496 41.472C534.227 39.5093 536.104 36.9493 537.128 33.792C538.152 30.5493 538.664 27.0933 538.664 23.424C538.664 17.1093 537.256 12.3733 534.44 9.21601C531.709 5.97335 527.144 4.35201 520.744 4.35201Z" fill="#D9988A"/>
</svg>
