<svg width="720" height="202" viewBox="0 0 720 202" fill="none" xmlns="http://www.w3.org/2000/svg">
<g clip-path="url(#clip0_31_60)">
<path d="M70.8835 182.099C70.6089 181.238 70.2396 180.466 69.7756 179.784C69.321 179.093 68.7765 178.506 68.142 178.023C67.5076 177.53 66.7831 177.156 65.9688 176.901C65.1638 176.645 64.2784 176.517 63.3125 176.517C61.6742 176.517 60.197 176.938 58.8807 177.781C57.5644 178.624 56.5227 179.86 55.7557 181.489C54.9981 183.108 54.6193 185.092 54.6193 187.44C54.6193 189.798 55.0028 191.792 55.7699 193.42C56.5369 195.049 57.5881 196.285 58.9233 197.128C60.2585 197.971 61.7784 198.392 63.483 198.392C65.0644 198.392 66.4422 198.07 67.6165 197.426C68.8002 196.782 69.714 195.873 70.358 194.699C71.0114 193.515 71.3381 192.123 71.3381 190.523L72.4744 190.736H64.1506V187.114H75.5852V190.423C75.5852 192.866 75.0644 194.988 74.0227 196.787C72.9905 198.577 71.5606 199.959 69.733 200.935C67.9148 201.91 65.8314 202.398 63.483 202.398C60.8504 202.398 58.5398 201.792 56.5511 200.58C54.572 199.367 53.0284 197.649 51.9205 195.423C50.8125 193.188 50.2585 190.537 50.2585 187.469C50.2585 185.149 50.5805 183.065 51.2244 181.219C51.8684 179.372 52.7727 177.805 53.9375 176.517C55.1117 175.22 56.4896 174.23 58.071 173.548C59.6619 172.857 61.3996 172.511 63.2841 172.511C64.8561 172.511 66.3191 172.743 67.6733 173.207C69.0369 173.671 70.2491 174.33 71.3097 175.182C72.3797 176.034 73.2652 177.047 73.9659 178.222C74.6667 179.386 75.1402 180.679 75.3864 182.099H70.8835ZM99.157 202V172.909H117.396V176.688H103.546V185.551H116.444V189.315H103.546V198.222H117.566V202H99.157ZM157.125 180.551C156.973 179.206 156.348 178.165 155.25 177.426C154.152 176.678 152.769 176.304 151.102 176.304C149.909 176.304 148.877 176.493 148.006 176.872C147.134 177.241 146.457 177.753 145.974 178.406C145.501 179.05 145.264 179.784 145.264 180.608C145.264 181.299 145.425 181.896 145.747 182.398C146.079 182.9 146.509 183.321 147.04 183.662C147.58 183.993 148.157 184.273 148.773 184.5C149.388 184.718 149.98 184.898 150.548 185.04L153.389 185.778C154.317 186.006 155.269 186.313 156.244 186.702C157.22 187.09 158.124 187.601 158.957 188.236C159.791 188.87 160.463 189.656 160.974 190.594C161.495 191.531 161.756 192.653 161.756 193.96C161.756 195.608 161.33 197.071 160.477 198.349C159.634 199.628 158.408 200.636 156.798 201.375C155.198 202.114 153.261 202.483 150.989 202.483C148.811 202.483 146.926 202.137 145.335 201.446C143.744 200.755 142.499 199.775 141.599 198.506C140.7 197.227 140.203 195.712 140.108 193.96H144.511C144.597 195.011 144.938 195.887 145.534 196.588C146.14 197.279 146.912 197.795 147.849 198.136C148.796 198.468 149.833 198.634 150.96 198.634C152.201 198.634 153.304 198.439 154.27 198.051C155.245 197.653 156.012 197.104 156.571 196.403C157.13 195.693 157.409 194.865 157.409 193.918C157.409 193.056 157.163 192.35 156.67 191.801C156.188 191.252 155.529 190.797 154.696 190.438C153.872 190.078 152.939 189.76 151.898 189.486L148.46 188.548C146.131 187.914 144.284 186.981 142.92 185.75C141.566 184.519 140.889 182.89 140.889 180.864C140.889 179.187 141.344 177.724 142.253 176.474C143.162 175.224 144.393 174.254 145.946 173.562C147.499 172.862 149.251 172.511 151.202 172.511C153.171 172.511 154.909 172.857 156.415 173.548C157.93 174.24 159.123 175.191 159.994 176.403C160.866 177.606 161.32 178.989 161.358 180.551H157.125ZM183.566 176.688V172.909H206.08V176.688H197.004V202H192.629V176.688H183.566ZM228.075 202H223.416L233.885 172.909H238.956L249.425 202H244.766L236.541 178.193H236.314L228.075 202ZM228.857 190.608H243.97V194.301H228.857V190.608ZM232.152 170.026L229.283 169.926C229.283 168.364 229.709 167.114 230.561 166.176C231.413 165.239 232.46 164.765 233.7 164.756C234.287 164.756 234.799 164.855 235.234 165.054C235.67 165.243 236.077 165.466 236.456 165.722C236.835 165.977 237.218 166.205 237.607 166.403C237.995 166.593 238.426 166.688 238.899 166.688C239.439 166.678 239.879 166.47 240.22 166.062C240.571 165.646 240.746 165.13 240.746 164.514L243.558 164.699C243.549 166.28 243.118 167.526 242.266 168.435C241.423 169.334 240.381 169.784 239.141 169.784C238.468 169.784 237.91 169.689 237.464 169.5C237.019 169.301 236.626 169.079 236.286 168.832C235.945 168.577 235.594 168.354 235.234 168.165C234.875 167.966 234.444 167.866 233.942 167.866C233.421 167.866 232.99 168.07 232.649 168.477C232.318 168.884 232.152 169.401 232.152 170.026ZM295.528 187.455C295.528 190.561 294.96 193.231 293.824 195.466C292.688 197.691 291.13 199.405 289.151 200.608C287.181 201.801 284.941 202.398 282.432 202.398C279.913 202.398 277.664 201.801 275.685 200.608C273.715 199.405 272.162 197.687 271.026 195.452C269.889 193.217 269.321 190.551 269.321 187.455C269.321 184.348 269.889 181.683 271.026 179.457C272.162 177.223 273.715 175.509 275.685 174.315C277.664 173.113 279.913 172.511 282.432 172.511C284.941 172.511 287.181 173.113 289.151 174.315C291.13 175.509 292.688 177.223 293.824 179.457C294.96 181.683 295.528 184.348 295.528 187.455ZM291.182 187.455C291.182 185.087 290.798 183.094 290.031 181.474C289.274 179.846 288.232 178.615 286.906 177.781C285.59 176.938 284.098 176.517 282.432 176.517C280.756 176.517 279.259 176.938 277.943 177.781C276.627 178.615 275.585 179.846 274.818 181.474C274.061 183.094 273.682 185.087 273.682 187.455C273.682 189.822 274.061 191.82 274.818 193.449C275.585 195.068 276.627 196.299 277.943 197.142C279.259 197.975 280.756 198.392 282.432 198.392C284.098 198.392 285.59 197.975 286.906 197.142C288.232 196.299 289.274 195.068 290.031 193.449C290.798 191.82 291.182 189.822 291.182 187.455ZM371.749 182.369H367.317C367.146 181.422 366.829 180.589 366.365 179.869C365.901 179.15 365.333 178.539 364.661 178.037C363.988 177.535 363.235 177.156 362.402 176.901C361.578 176.645 360.702 176.517 359.774 176.517C358.098 176.517 356.597 176.938 355.271 177.781C353.955 178.624 352.913 179.86 352.146 181.489C351.389 183.117 351.01 185.106 351.01 187.455C351.01 189.822 351.389 191.82 352.146 193.449C352.913 195.078 353.96 196.309 355.286 197.142C356.611 197.975 358.103 198.392 359.76 198.392C360.679 198.392 361.55 198.269 362.374 198.023C363.207 197.767 363.96 197.393 364.632 196.901C365.304 196.408 365.873 195.807 366.337 195.097C366.81 194.377 367.137 193.553 367.317 192.625L371.749 192.639C371.512 194.069 371.053 195.385 370.371 196.588C369.698 197.781 368.832 198.813 367.771 199.685C366.72 200.546 365.518 201.214 364.163 201.688C362.809 202.161 361.332 202.398 359.732 202.398C357.213 202.398 354.968 201.801 352.999 200.608C351.029 199.405 349.476 197.687 348.339 195.452C347.213 193.217 346.649 190.551 346.649 187.455C346.649 184.348 347.217 181.683 348.354 179.457C349.49 177.223 351.043 175.509 353.013 174.315C354.982 173.113 357.222 172.511 359.732 172.511C361.275 172.511 362.714 172.734 364.05 173.179C365.394 173.615 366.602 174.259 367.672 175.111C368.742 175.954 369.627 176.986 370.328 178.207C371.029 179.42 371.502 180.807 371.749 182.369ZM420.271 187.455C420.271 190.561 419.702 193.231 418.566 195.466C417.43 197.691 415.872 199.405 413.893 200.608C411.923 201.801 409.683 202.398 407.174 202.398C404.655 202.398 402.406 201.801 400.427 200.608C398.457 199.405 396.904 197.687 395.768 195.452C394.631 193.217 394.063 190.551 394.063 187.455C394.063 184.348 394.631 181.683 395.768 179.457C396.904 177.223 398.457 175.509 400.427 174.315C402.406 173.113 404.655 172.511 407.174 172.511C409.683 172.511 411.923 173.113 413.893 174.315C415.872 175.509 417.43 177.223 418.566 179.457C419.702 181.683 420.271 184.348 420.271 187.455ZM415.924 187.455C415.924 185.087 415.54 183.094 414.773 181.474C414.016 179.846 412.974 178.615 411.648 177.781C410.332 176.938 408.841 176.517 407.174 176.517C405.498 176.517 404.002 176.938 402.685 177.781C401.369 178.615 400.327 179.846 399.56 181.474C398.803 183.094 398.424 185.087 398.424 187.455C398.424 189.822 398.803 191.82 399.56 193.449C400.327 195.068 401.369 196.299 402.685 197.142C404.002 197.975 405.498 198.392 407.174 198.392C408.841 198.392 410.332 197.975 411.648 197.142C412.974 196.299 414.016 195.068 414.773 193.449C415.54 191.82 415.924 189.822 415.924 187.455ZM467.223 172.909V202H463.189L448.402 180.665H448.132V202H443.743V172.909H447.805L462.607 194.273H462.876V172.909H467.223ZM490.191 176.688V172.909H512.705V176.688H503.629V202H499.254V176.688H490.191ZM534.7 202H530.041L540.51 172.909H545.581L556.05 202H551.391L543.166 178.193H542.939L534.7 202ZM535.482 190.608H550.595V194.301H535.482V190.608ZM541.291 169.997L544.615 163.449H549.089L544.686 169.997H541.291ZM578.251 202V172.909H588.904C590.969 172.909 592.678 173.25 594.032 173.932C595.386 174.604 596.399 175.518 597.072 176.673C597.744 177.819 598.08 179.112 598.08 180.551C598.08 181.763 597.858 182.786 597.413 183.619C596.968 184.443 596.371 185.106 595.623 185.608C594.884 186.1 594.07 186.46 593.18 186.688V186.972C594.146 187.019 595.088 187.331 596.006 187.909C596.934 188.477 597.701 189.287 598.308 190.338C598.914 191.389 599.217 192.668 599.217 194.173C599.217 195.66 598.866 196.995 598.165 198.179C597.474 199.353 596.404 200.286 594.955 200.977C593.506 201.659 591.655 202 589.401 202H578.251ZM582.64 198.236H588.975C591.077 198.236 592.583 197.829 593.492 197.014C594.401 196.2 594.856 195.182 594.856 193.96C594.856 193.042 594.624 192.199 594.16 191.432C593.696 190.665 593.033 190.054 592.171 189.599C591.319 189.145 590.306 188.918 589.131 188.918H582.64V198.236ZM582.64 185.494H588.521C589.505 185.494 590.391 185.305 591.177 184.926C591.972 184.547 592.602 184.017 593.066 183.335C593.54 182.644 593.776 181.83 593.776 180.892C593.776 179.689 593.355 178.681 592.512 177.866C591.669 177.052 590.377 176.645 588.634 176.645H582.64V185.494ZM626.812 172.909V202H622.423V172.909H626.812ZM651.204 202V172.909H655.593V198.222H668.775V202H651.204Z" fill="#274F4A"/>
<path d="M115.32 56.376C130.595 56.376 141.944 60.216 149.368 67.896C156.792 75.4907 160.504 86.4133 160.504 100.664C160.504 109.965 158.669 118.115 155 125.112C151.416 132.024 146.168 137.4 139.256 141.24C132.344 145.08 123.981 147 114.168 147C112.888 147 111.181 146.957 109.048 146.872C106.915 146.787 104.696 146.744 102.392 146.744C100.173 146.659 98.1253 146.616 96.248 146.616C93.2613 146.616 90.3173 146.659 87.416 146.744C84.5147 146.744 82.168 146.829 80.376 147V144.44C83.2773 144.269 85.4533 143.928 86.904 143.416C88.44 142.904 89.464 141.88 89.976 140.344C90.488 138.808 90.744 136.504 90.744 133.432V69.944C90.744 66.7867 90.488 64.4827 89.976 63.032C89.464 61.496 88.44 60.472 86.904 59.96C85.4533 59.3627 83.2773 59.0213 80.376 58.936V56.376C82.168 56.4613 84.5147 56.5893 87.416 56.76C90.3173 56.8453 93.176 56.8453 95.992 56.76C98.9787 56.6747 102.349 56.5893 106.104 56.504C109.859 56.4187 112.931 56.376 115.32 56.376ZM112.12 58.68C108.195 58.68 105.635 59.4053 104.44 60.856C103.245 62.3067 102.648 65.2507 102.648 69.688V133.688C102.648 138.125 103.245 141.069 104.44 142.52C105.72 143.971 108.323 144.696 112.248 144.696C121.549 144.696 128.76 143.032 133.88 139.704C139 136.291 142.584 131.341 144.632 124.856C146.68 118.371 147.704 110.477 147.704 101.176C147.704 91.6187 146.552 83.7253 144.248 77.496C142.029 71.1813 138.317 66.488 133.112 63.416C127.992 60.2587 120.995 58.68 112.12 58.68ZM250.465 56.376V58.936C247.564 59.0213 245.345 59.448 243.809 60.216C242.358 60.984 241.377 62.2213 240.865 63.928C240.353 65.6347 240.097 68.0667 240.097 71.224V109.752C240.097 115.725 239.713 120.931 238.945 125.368C238.177 129.805 236.812 133.645 234.849 136.888C232.716 140.472 229.601 143.373 225.505 145.592C221.409 147.725 216.716 148.792 211.425 148.792C207.329 148.792 203.404 148.28 199.649 147.256C195.98 146.317 192.737 144.525 189.921 141.88C187.446 139.491 185.484 136.973 184.033 134.328C182.668 131.683 181.729 128.44 181.217 124.6C180.705 120.76 180.449 115.939 180.449 110.136V69.944C180.449 66.7867 180.193 64.4827 179.681 63.032C179.169 61.496 178.145 60.472 176.609 59.96C175.158 59.3627 172.982 59.0213 170.081 58.936V56.376C171.873 56.4613 174.22 56.5467 177.121 56.632C180.022 56.7173 183.137 56.76 186.465 56.76C189.452 56.76 192.396 56.7173 195.297 56.632C198.284 56.5467 200.758 56.4613 202.721 56.376V58.936C199.82 59.0213 197.601 59.3627 196.065 59.96C194.614 60.472 193.633 61.496 193.121 63.032C192.609 64.4827 192.353 66.7867 192.353 69.944V112.312C192.353 116.664 192.566 120.803 192.993 124.728C193.42 128.568 194.273 131.981 195.553 134.968C196.918 137.869 198.966 140.173 201.697 141.88C204.428 143.501 208.054 144.312 212.577 144.312C219.062 144.312 224.054 142.904 227.553 140.088C231.137 137.187 233.612 133.219 234.977 128.184C236.428 123.149 237.153 117.475 237.153 111.16V71.224C237.153 68.0667 236.769 65.6347 236.001 63.928C235.318 62.2213 234.124 60.984 232.417 60.216C230.71 59.448 228.406 59.0213 225.505 58.936V56.376C227.041 56.4613 229.046 56.5467 231.521 56.632C234.081 56.7173 236.428 56.76 238.561 56.76C240.78 56.76 242.956 56.7173 245.089 56.632C247.308 56.5467 249.1 56.4613 250.465 56.376ZM300.613 54.584C308.72 54.584 315.802 56.4187 321.861 60.088C328.005 63.7573 332.741 69.048 336.069 75.96C339.482 82.7867 341.189 91.1067 341.189 100.92C341.189 110.477 339.44 118.84 335.941 126.008C332.528 133.176 327.749 138.765 321.605 142.776C315.461 146.787 308.421 148.792 300.485 148.792C292.378 148.792 285.253 146.957 279.109 143.288C273.05 139.619 268.314 134.328 264.901 127.416C261.573 120.504 259.909 112.184 259.909 102.456C259.909 92.8987 261.658 84.536 265.157 77.368C268.656 70.2 273.434 64.6107 279.493 60.6C285.637 56.5893 292.677 54.584 300.613 54.584ZM300.101 56.888C294.554 56.888 289.733 58.808 285.637 62.648C281.541 66.488 278.341 71.7787 276.037 78.52C273.818 85.2613 272.709 93.0693 272.709 101.944C272.709 110.989 273.946 118.883 276.421 125.624C278.981 132.28 282.394 137.443 286.661 141.112C291.013 144.696 295.792 146.488 300.997 146.488C306.544 146.488 311.365 144.568 315.461 140.728C319.557 136.888 322.714 131.597 324.933 124.856C327.237 118.029 328.389 110.221 328.389 101.432C328.389 92.3013 327.109 84.408 324.549 77.752C322.074 71.096 318.704 65.976 314.437 62.392C310.17 58.7227 305.392 56.888 300.101 56.888Z" fill="#274F4A"/>
<path d="M438.755 147V144.44C441.656 144.269 443.832 143.928 445.283 143.416C446.819 142.904 447.843 141.88 448.355 140.344C448.867 138.808 449.123 136.504 449.123 133.432V69.944C449.123 66.7867 448.867 64.4827 448.355 63.032C447.843 61.496 446.819 60.472 445.283 59.96C443.832 59.3627 441.656 59.0213 438.755 58.936V56.376C440.718 56.4613 443.192 56.5467 446.179 56.632C449.166 56.7173 452.11 56.76 455.011 56.76C458.339 56.76 461.454 56.7173 464.355 56.632C467.256 56.5467 469.603 56.4613 471.395 56.376V58.936C468.494 59.0213 466.275 59.3627 464.739 59.96C463.288 60.472 462.307 61.496 461.795 63.032C461.283 64.4827 461.027 66.7867 461.027 69.944V133.432C461.027 136.504 461.283 138.808 461.795 140.344C462.307 141.88 463.288 142.904 464.739 143.416C466.275 143.928 468.494 144.269 471.395 144.44V147C469.603 146.829 467.256 146.744 464.355 146.744C461.454 146.659 458.339 146.616 455.011 146.616C452.11 146.616 449.166 146.659 446.179 146.744C443.192 146.744 440.718 146.829 438.755 147ZM385.251 147V144.44C388.152 144.269 390.328 143.928 391.779 143.416C393.315 142.904 394.339 141.88 394.851 140.344C395.363 138.808 395.619 136.504 395.619 133.432V69.944C395.619 66.7867 395.363 64.4827 394.851 63.032C394.339 61.496 393.315 60.472 391.779 59.96C390.328 59.3627 388.152 59.0213 385.251 58.936V56.376C387.043 56.4613 389.39 56.5467 392.291 56.632C395.192 56.7173 398.307 56.76 401.635 56.76C404.622 56.76 407.566 56.7173 410.467 56.632C413.454 56.5467 415.928 56.4613 417.891 56.376V58.936C414.99 59.0213 412.771 59.3627 411.235 59.96C409.784 60.472 408.803 61.496 408.291 63.032C407.779 64.4827 407.523 66.7867 407.523 69.944V133.432C407.523 136.504 407.779 138.808 408.291 140.344C408.803 141.88 409.784 142.904 411.235 143.416C412.771 143.928 414.99 144.269 417.891 144.44V147C415.928 146.829 413.454 146.744 410.467 146.744C407.566 146.659 404.622 146.616 401.635 146.616C398.307 146.616 395.192 146.659 392.291 146.744C389.39 146.744 387.043 146.829 385.251 147ZM403.043 102.712V100.152H453.603V102.712H403.043ZM560.59 56.376V58.936C557.689 59.0213 555.47 59.448 553.934 60.216C552.483 60.984 551.502 62.2213 550.99 63.928C550.478 65.6347 550.222 68.0667 550.222 71.224V109.752C550.222 115.725 549.838 120.931 549.07 125.368C548.302 129.805 546.937 133.645 544.974 136.888C542.841 140.472 539.726 143.373 535.63 145.592C531.534 147.725 526.841 148.792 521.55 148.792C517.454 148.792 513.529 148.28 509.774 147.256C506.105 146.317 502.862 144.525 500.046 141.88C497.571 139.491 495.609 136.973 494.158 134.328C492.793 131.683 491.854 128.44 491.342 124.6C490.83 120.76 490.574 115.939 490.574 110.136V69.944C490.574 66.7867 490.318 64.4827 489.806 63.032C489.294 61.496 488.27 60.472 486.734 59.96C485.283 59.3627 483.107 59.0213 480.206 58.936V56.376C481.998 56.4613 484.345 56.5467 487.246 56.632C490.147 56.7173 493.262 56.76 496.59 56.76C499.577 56.76 502.521 56.7173 505.422 56.632C508.409 56.5467 510.883 56.4613 512.846 56.376V58.936C509.945 59.0213 507.726 59.3627 506.19 59.96C504.739 60.472 503.758 61.496 503.246 63.032C502.734 64.4827 502.478 66.7867 502.478 69.944V112.312C502.478 116.664 502.691 120.803 503.118 124.728C503.545 128.568 504.398 131.981 505.678 134.968C507.043 137.869 509.091 140.173 511.822 141.88C514.553 143.501 518.179 144.312 522.702 144.312C529.187 144.312 534.179 142.904 537.678 140.088C541.262 137.187 543.737 133.219 545.102 128.184C546.553 123.149 547.278 117.475 547.278 111.16V71.224C547.278 68.0667 546.894 65.6347 546.126 63.928C545.443 62.2213 544.249 60.984 542.542 60.216C540.835 59.448 538.531 59.0213 535.63 58.936V56.376C537.166 56.4613 539.171 56.5467 541.646 56.632C544.206 56.7173 546.553 56.76 548.686 56.76C550.905 56.76 553.081 56.7173 555.214 56.632C557.433 56.5467 559.225 56.4613 560.59 56.376ZM569.376 56.376C571.168 56.4613 573.515 56.5467 576.416 56.632C579.317 56.7173 582.176 56.76 584.992 56.76C589.003 56.76 592.843 56.7173 596.512 56.632C600.181 56.5467 602.784 56.504 604.32 56.504C613.28 56.504 620.021 58.3813 624.544 62.136C629.067 65.8907 631.328 70.712 631.328 76.6C631.328 79.5867 630.688 82.5307 629.408 85.432C628.213 88.248 626.165 90.8507 623.264 93.24C620.448 95.544 616.651 97.4213 611.872 98.872V99.128C618.613 99.9813 623.861 101.603 627.616 103.992C631.456 106.296 634.144 109.027 635.68 112.184C637.216 115.341 637.984 118.669 637.984 122.168C637.984 127.032 636.747 131.341 634.272 135.096C631.883 138.765 628.384 141.667 623.776 143.8C619.168 145.933 613.664 147 607.264 147C605.387 147 602.571 146.957 598.816 146.872C595.061 146.701 590.539 146.616 585.248 146.616C582.261 146.616 579.317 146.659 576.416 146.744C573.515 146.744 571.168 146.829 569.376 147V144.44C572.277 144.269 574.453 143.928 575.904 143.416C577.44 142.904 578.464 141.88 578.976 140.344C579.488 138.808 579.744 136.504 579.744 133.432V69.944C579.744 66.7867 579.488 64.4827 578.976 63.032C578.464 61.496 577.44 60.472 575.904 59.96C574.453 59.3627 572.277 59.0213 569.376 58.936V56.376ZM601.12 58.936C597.195 58.936 594.635 59.6613 593.44 61.112C592.245 62.5627 591.648 65.5067 591.648 69.944V133.432C591.648 136.419 591.904 138.68 592.416 140.216C592.928 141.752 593.867 142.776 595.232 143.288C596.597 143.8 598.603 144.056 601.248 144.056C609.611 144.056 615.669 142.136 619.424 138.296C623.264 134.371 625.184 128.824 625.184 121.656C625.184 115.085 623.392 110.008 619.808 106.424C616.309 102.84 610.507 101.048 602.4 101.048H589.216C589.216 101.048 589.216 100.707 589.216 100.024C589.216 99.256 589.216 98.872 589.216 98.872H600.224C605.259 98.872 609.141 97.9333 611.872 96.056C614.603 94.0933 616.48 91.5333 617.504 88.376C618.528 85.1333 619.04 81.6773 619.04 78.008C619.04 71.6933 617.632 66.9573 614.816 63.8C612.085 60.5573 607.52 58.936 601.12 58.936Z" fill="#D9988A"/>
</g>
<defs>
<clipPath id="clip0_31_60">
<rect width="720" height="202" fill="white"/>
</clipPath>
</defs>
</svg>
