<svg width="569" height="237" viewBox="0 0 569 237" fill="none" xmlns="http://www.w3.org/2000/svg">
<path d="M40.32 48.376C55.5947 48.376 66.944 52.216 74.368 59.896C81.792 67.4907 85.504 78.4133 85.504 92.664C85.504 101.965 83.6693 110.115 80 117.112C76.416 124.024 71.168 129.4 64.256 133.24C57.344 137.08 48.9813 139 39.168 139C37.888 139 36.1813 138.957 34.048 138.872C31.9147 138.787 29.696 138.744 27.392 138.744C25.1733 138.659 23.1253 138.616 21.248 138.616C18.2613 138.616 15.3173 138.659 12.416 138.744C9.51467 138.744 7.168 138.829 5.376 139V136.44C8.27733 136.269 10.4533 135.928 11.904 135.416C13.44 134.904 14.464 133.88 14.976 132.344C15.488 130.808 15.744 128.504 15.744 125.432V61.944C15.744 58.7867 15.488 56.4827 14.976 55.032C14.464 53.496 13.44 52.472 11.904 51.96C10.4533 51.3627 8.27733 51.0213 5.376 50.936V48.376C7.168 48.4613 9.51467 48.5893 12.416 48.76C15.3173 48.8453 18.176 48.8453 20.992 48.76C23.9787 48.6747 27.3493 48.5893 31.104 48.504C34.8587 48.4187 37.9307 48.376 40.32 48.376ZM37.12 50.68C33.1947 50.68 30.6347 51.4053 29.44 52.856C28.2453 54.3067 27.648 57.2507 27.648 61.688V125.688C27.648 130.125 28.2453 133.069 29.44 134.52C30.72 135.971 33.3227 136.696 37.248 136.696C46.5493 136.696 53.76 135.032 58.88 131.704C64 128.291 67.584 123.341 69.632 116.856C71.68 110.371 72.704 102.477 72.704 93.176C72.704 83.6187 71.552 75.7253 69.248 69.496C67.0293 63.1813 63.3173 58.488 58.112 55.416C52.992 52.2587 45.9947 50.68 37.12 50.68ZM175.465 48.376V50.936C172.564 51.0213 170.345 51.448 168.809 52.216C167.358 52.984 166.377 54.2213 165.865 55.928C165.353 57.6347 165.097 60.0667 165.097 63.224V101.752C165.097 107.725 164.713 112.931 163.945 117.368C163.177 121.805 161.812 125.645 159.849 128.888C157.716 132.472 154.601 135.373 150.505 137.592C146.409 139.725 141.716 140.792 136.425 140.792C132.329 140.792 128.404 140.28 124.649 139.256C120.98 138.317 117.737 136.525 114.921 133.88C112.446 131.491 110.484 128.973 109.033 126.328C107.668 123.683 106.729 120.44 106.217 116.6C105.705 112.76 105.449 107.939 105.449 102.136V61.944C105.449 58.7867 105.193 56.4827 104.681 55.032C104.169 53.496 103.145 52.472 101.609 51.96C100.158 51.3627 97.9823 51.0213 95.081 50.936V48.376C96.873 48.4613 99.2197 48.5467 102.121 48.632C105.022 48.7173 108.137 48.76 111.465 48.76C114.452 48.76 117.396 48.7173 120.297 48.632C123.284 48.5467 125.758 48.4613 127.721 48.376V50.936C124.82 51.0213 122.601 51.3627 121.065 51.96C119.614 52.472 118.633 53.496 118.121 55.032C117.609 56.4827 117.353 58.7867 117.353 61.944V104.312C117.353 108.664 117.566 112.803 117.993 116.728C118.42 120.568 119.273 123.981 120.553 126.968C121.918 129.869 123.966 132.173 126.697 133.88C129.428 135.501 133.054 136.312 137.577 136.312C144.062 136.312 149.054 134.904 152.553 132.088C156.137 129.187 158.612 125.219 159.977 120.184C161.428 115.149 162.153 109.475 162.153 103.16V63.224C162.153 60.0667 161.769 57.6347 161.001 55.928C160.318 54.2213 159.124 52.984 157.417 52.216C155.71 51.448 153.406 51.0213 150.505 50.936V48.376C152.041 48.4613 154.046 48.5467 156.521 48.632C159.081 48.7173 161.428 48.76 163.561 48.76C165.78 48.76 167.956 48.7173 170.089 48.632C172.308 48.5467 174.1 48.4613 175.465 48.376ZM225.613 46.584C233.72 46.584 240.802 48.4187 246.861 52.088C253.005 55.7573 257.741 61.048 261.069 67.96C264.482 74.7867 266.189 83.1067 266.189 92.92C266.189 102.477 264.44 110.84 260.941 118.008C257.528 125.176 252.749 130.765 246.605 134.776C240.461 138.787 233.421 140.792 225.485 140.792C217.378 140.792 210.253 138.957 204.109 135.288C198.05 131.619 193.314 126.328 189.901 119.416C186.573 112.504 184.909 104.184 184.909 94.456C184.909 84.8987 186.658 76.536 190.157 69.368C193.656 62.2 198.434 56.6107 204.493 52.6C210.637 48.5893 217.677 46.584 225.613 46.584ZM225.101 48.888C219.554 48.888 214.733 50.808 210.637 54.648C206.541 58.488 203.341 63.7787 201.037 70.52C198.818 77.2613 197.709 85.0693 197.709 93.944C197.709 102.989 198.946 110.883 201.421 117.624C203.981 124.28 207.394 129.443 211.661 133.112C216.013 136.696 220.792 138.488 225.997 138.488C231.544 138.488 236.365 136.568 240.461 132.728C244.557 128.888 247.714 123.597 249.933 116.856C252.237 110.029 253.389 102.221 253.389 93.432C253.389 84.3013 252.109 76.408 249.549 69.752C247.074 63.096 243.704 57.976 239.437 54.392C235.17 50.7227 230.392 48.888 225.101 48.888Z" fill="#274F4A"/>
<path d="M363.755 139V136.44C366.656 136.269 368.832 135.928 370.283 135.416C371.819 134.904 372.843 133.88 373.355 132.344C373.867 130.808 374.123 128.504 374.123 125.432V61.944C374.123 58.7867 373.867 56.4827 373.355 55.032C372.843 53.496 371.819 52.472 370.283 51.96C368.832 51.3627 366.656 51.0213 363.755 50.936V48.376C365.718 48.4613 368.192 48.5467 371.179 48.632C374.166 48.7173 377.11 48.76 380.011 48.76C383.339 48.76 386.454 48.7173 389.355 48.632C392.256 48.5467 394.603 48.4613 396.395 48.376V50.936C393.494 51.0213 391.275 51.3627 389.739 51.96C388.288 52.472 387.307 53.496 386.795 55.032C386.283 56.4827 386.027 58.7867 386.027 61.944V125.432C386.027 128.504 386.283 130.808 386.795 132.344C387.307 133.88 388.288 134.904 389.739 135.416C391.275 135.928 393.494 136.269 396.395 136.44V139C394.603 138.829 392.256 138.744 389.355 138.744C386.454 138.659 383.339 138.616 380.011 138.616C377.11 138.616 374.166 138.659 371.179 138.744C368.192 138.744 365.718 138.829 363.755 139ZM310.251 139V136.44C313.152 136.269 315.328 135.928 316.779 135.416C318.315 134.904 319.339 133.88 319.851 132.344C320.363 130.808 320.619 128.504 320.619 125.432V61.944C320.619 58.7867 320.363 56.4827 319.851 55.032C319.339 53.496 318.315 52.472 316.779 51.96C315.328 51.3627 313.152 51.0213 310.251 50.936V48.376C312.043 48.4613 314.39 48.5467 317.291 48.632C320.192 48.7173 323.307 48.76 326.635 48.76C329.622 48.76 332.566 48.7173 335.467 48.632C338.454 48.5467 340.928 48.4613 342.891 48.376V50.936C339.99 51.0213 337.771 51.3627 336.235 51.96C334.784 52.472 333.803 53.496 333.291 55.032C332.779 56.4827 332.523 58.7867 332.523 61.944V125.432C332.523 128.504 332.779 130.808 333.291 132.344C333.803 133.88 334.784 134.904 336.235 135.416C337.771 135.928 339.99 136.269 342.891 136.44V139C340.928 138.829 338.454 138.744 335.467 138.744C332.566 138.659 329.622 138.616 326.635 138.616C323.307 138.616 320.192 138.659 317.291 138.744C314.39 138.744 312.043 138.829 310.251 139ZM328.043 94.712V92.152H378.603V94.712H328.043ZM485.59 48.376V50.936C482.689 51.0213 480.47 51.448 478.934 52.216C477.483 52.984 476.502 54.2213 475.99 55.928C475.478 57.6347 475.222 60.0667 475.222 63.224V101.752C475.222 107.725 474.838 112.931 474.07 117.368C473.302 121.805 471.937 125.645 469.974 128.888C467.841 132.472 464.726 135.373 460.63 137.592C456.534 139.725 451.841 140.792 446.55 140.792C442.454 140.792 438.529 140.28 434.774 139.256C431.105 138.317 427.862 136.525 425.046 133.88C422.571 131.491 420.609 128.973 419.158 126.328C417.793 123.683 416.854 120.44 416.342 116.6C415.83 112.76 415.574 107.939 415.574 102.136V61.944C415.574 58.7867 415.318 56.4827 414.806 55.032C414.294 53.496 413.27 52.472 411.734 51.96C410.283 51.3627 408.107 51.0213 405.206 50.936V48.376C406.998 48.4613 409.345 48.5467 412.246 48.632C415.147 48.7173 418.262 48.76 421.59 48.76C424.577 48.76 427.521 48.7173 430.422 48.632C433.409 48.5467 435.883 48.4613 437.846 48.376V50.936C434.945 51.0213 432.726 51.3627 431.19 51.96C429.739 52.472 428.758 53.496 428.246 55.032C427.734 56.4827 427.478 58.7867 427.478 61.944V104.312C427.478 108.664 427.691 112.803 428.118 116.728C428.545 120.568 429.398 123.981 430.678 126.968C432.043 129.869 434.091 132.173 436.822 133.88C439.553 135.501 443.179 136.312 447.702 136.312C454.187 136.312 459.179 134.904 462.678 132.088C466.262 129.187 468.737 125.219 470.102 120.184C471.553 115.149 472.278 109.475 472.278 103.16V63.224C472.278 60.0667 471.894 57.6347 471.126 55.928C470.443 54.2213 469.249 52.984 467.542 52.216C465.835 51.448 463.531 51.0213 460.63 50.936V48.376C462.166 48.4613 464.171 48.5467 466.646 48.632C469.206 48.7173 471.553 48.76 473.686 48.76C475.905 48.76 478.081 48.7173 480.214 48.632C482.433 48.5467 484.225 48.4613 485.59 48.376ZM494.376 48.376C496.168 48.4613 498.515 48.5467 501.416 48.632C504.317 48.7173 507.176 48.76 509.992 48.76C514.003 48.76 517.843 48.7173 521.512 48.632C525.181 48.5467 527.784 48.504 529.32 48.504C538.28 48.504 545.021 50.3813 549.544 54.136C554.067 57.8907 556.328 62.712 556.328 68.6C556.328 71.5867 555.688 74.5307 554.408 77.432C553.213 80.248 551.165 82.8507 548.264 85.24C545.448 87.544 541.651 89.4213 536.872 90.872V91.128C543.613 91.9813 548.861 93.6027 552.616 95.992C556.456 98.296 559.144 101.027 560.68 104.184C562.216 107.341 562.984 110.669 562.984 114.168C562.984 119.032 561.747 123.341 559.272 127.096C556.883 130.765 553.384 133.667 548.776 135.8C544.168 137.933 538.664 139 532.264 139C530.387 139 527.571 138.957 523.816 138.872C520.061 138.701 515.539 138.616 510.248 138.616C507.261 138.616 504.317 138.659 501.416 138.744C498.515 138.744 496.168 138.829 494.376 139V136.44C497.277 136.269 499.453 135.928 500.904 135.416C502.44 134.904 503.464 133.88 503.976 132.344C504.488 130.808 504.744 128.504 504.744 125.432V61.944C504.744 58.7867 504.488 56.4827 503.976 55.032C503.464 53.496 502.44 52.472 500.904 51.96C499.453 51.3627 497.277 51.0213 494.376 50.936V48.376ZM526.12 50.936C522.195 50.936 519.635 51.6613 518.44 53.112C517.245 54.5627 516.648 57.5067 516.648 61.944V125.432C516.648 128.419 516.904 130.68 517.416 132.216C517.928 133.752 518.867 134.776 520.232 135.288C521.597 135.8 523.603 136.056 526.248 136.056C534.611 136.056 540.669 134.136 544.424 130.296C548.264 126.371 550.184 120.824 550.184 113.656C550.184 107.085 548.392 102.008 544.808 98.424C541.309 94.84 535.507 93.048 527.4 93.048H514.216C514.216 93.048 514.216 92.7067 514.216 92.024C514.216 91.256 514.216 90.872 514.216 90.872H525.224C530.259 90.872 534.141 89.9333 536.872 88.056C539.603 86.0933 541.48 83.5333 542.504 80.376C543.528 77.1333 544.04 73.6773 544.04 70.008C544.04 63.6933 542.632 58.9573 539.816 55.8C537.085 52.5573 532.52 50.936 526.12 50.936Z" fill="#D9988A"/>
<path d="M59.196 228V198.909H77.4347V202.688H63.5852V211.551H76.483V215.315H63.5852V224.222H77.6051V228H59.196ZM101.298 198.909H106.624L115.886 221.523H116.227L125.488 198.909H130.815V228H126.638V206.949H126.369L117.789 227.957H114.323L105.744 206.935H105.474V228H101.298V198.909ZM155.196 228V198.909H165.565C167.829 198.909 169.704 199.321 171.19 200.145C172.677 200.969 173.79 202.096 174.528 203.526C175.267 204.946 175.636 206.546 175.636 208.327C175.636 210.116 175.262 211.726 174.514 213.156C173.776 214.577 172.658 215.704 171.162 216.537C169.675 217.361 167.805 217.773 165.551 217.773H158.42V214.051H165.153C166.583 214.051 167.743 213.805 168.634 213.312C169.524 212.811 170.177 212.129 170.594 211.267C171.01 210.405 171.219 209.425 171.219 208.327C171.219 207.228 171.01 206.253 170.594 205.401C170.177 204.548 169.519 203.881 168.619 203.398C167.729 202.915 166.555 202.673 165.097 202.673H159.585V228H155.196ZM198.782 228V198.909H209.151C211.405 198.909 213.275 199.297 214.762 200.074C216.258 200.85 217.376 201.925 218.114 203.298C218.853 204.662 219.222 206.239 219.222 208.028C219.222 209.809 218.848 211.376 218.1 212.73C217.362 214.075 216.244 215.121 214.748 215.869C213.261 216.617 211.391 216.991 209.137 216.991H201.282V213.213H208.739C210.16 213.213 211.315 213.009 212.205 212.602C213.105 212.195 213.763 211.603 214.18 210.827C214.596 210.05 214.805 209.117 214.805 208.028C214.805 206.93 214.592 205.978 214.165 205.173C213.749 204.368 213.091 203.753 212.191 203.327C211.301 202.891 210.131 202.673 208.683 202.673H203.171V228H198.782ZM213.143 214.875L220.33 228H215.33L208.285 214.875H213.143ZM242.563 228V198.909H260.802V202.688H246.952V211.551H259.85V215.315H246.952V224.222H260.972V228H242.563ZM300.531 206.551C300.38 205.206 299.755 204.165 298.656 203.426C297.558 202.678 296.175 202.304 294.509 202.304C293.315 202.304 292.283 202.493 291.412 202.872C290.541 203.241 289.864 203.753 289.381 204.406C288.907 205.05 288.67 205.784 288.67 206.608C288.67 207.299 288.831 207.896 289.153 208.398C289.485 208.9 289.916 209.321 290.446 209.662C290.986 209.993 291.563 210.273 292.179 210.5C292.795 210.718 293.386 210.898 293.955 211.04L296.795 211.778C297.723 212.006 298.675 212.313 299.651 212.702C300.626 213.09 301.53 213.601 302.364 214.236C303.197 214.87 303.869 215.656 304.381 216.594C304.902 217.531 305.162 218.653 305.162 219.96C305.162 221.608 304.736 223.071 303.884 224.349C303.041 225.628 301.814 226.636 300.205 227.375C298.604 228.114 296.668 228.483 294.395 228.483C292.217 228.483 290.332 228.137 288.741 227.446C287.151 226.755 285.905 225.775 285.006 224.506C284.106 223.227 283.609 221.712 283.514 219.96H287.918C288.003 221.011 288.344 221.887 288.94 222.588C289.546 223.279 290.318 223.795 291.256 224.136C292.203 224.468 293.24 224.634 294.366 224.634C295.607 224.634 296.71 224.439 297.676 224.051C298.652 223.653 299.419 223.104 299.977 222.403C300.536 221.693 300.815 220.865 300.815 219.918C300.815 219.056 300.569 218.35 300.077 217.801C299.594 217.252 298.936 216.797 298.102 216.438C297.278 216.078 296.346 215.76 295.304 215.486L291.866 214.548C289.537 213.914 287.69 212.981 286.327 211.75C284.973 210.519 284.295 208.89 284.295 206.864C284.295 205.187 284.75 203.724 285.659 202.474C286.568 201.224 287.799 200.254 289.352 199.562C290.905 198.862 292.657 198.511 294.608 198.511C296.578 198.511 298.315 198.857 299.821 199.548C301.336 200.24 302.529 201.191 303.401 202.403C304.272 203.606 304.726 204.989 304.764 206.551H300.531ZM330.63 228H325.971L336.44 198.909H341.511L351.979 228H347.32L339.096 204.193H338.869L330.63 228ZM331.411 216.608H346.525V220.301H331.411V216.608ZM374.18 228V198.909H384.55C386.804 198.909 388.674 199.297 390.161 200.074C391.657 200.85 392.774 201.925 393.513 203.298C394.251 204.662 394.621 206.239 394.621 208.028C394.621 209.809 394.247 211.376 393.499 212.73C392.76 214.075 391.643 215.121 390.146 215.869C388.66 216.617 386.789 216.991 384.536 216.991H376.68V213.213H384.138C385.558 213.213 386.714 213.009 387.604 212.602C388.503 212.195 389.161 211.603 389.578 210.827C389.995 210.05 390.203 209.117 390.203 208.028C390.203 206.93 389.99 205.978 389.564 205.173C389.147 204.368 388.489 203.753 387.589 203.327C386.699 202.891 385.53 202.673 384.081 202.673H378.57V228H374.18ZM388.541 214.875L395.729 228H390.729L383.683 214.875H388.541ZM422.351 198.909V228H417.962V198.909H422.351ZM449.2 228H444.541L455.01 198.909H460.081L470.55 228H465.891L457.666 204.193H457.439L449.2 228ZM449.982 216.608H465.095V220.301H449.982V216.608ZM492.751 228V198.909H497.14V224.222H510.322V228H492.751Z" fill="#274F4A"/>
</svg>
