<svg width="569" height="521" viewBox="0 0 569 521" fill="none" xmlns="http://www.w3.org/2000/svg">
<path d="M371 45.5029V43.5029H437.5V45.5029C425.004 46.7908 421.088 51.2407 421 67.5029V239.503C420.854 254.116 425.162 258.412 438 261.503V263.503H370V261.503C386.097 257.338 386.99 251.529 387 239.503V67.5029C387.233 55.9914 384.968 46.6207 371 45.5029Z" fill="#274F4A" stroke="#274F4A"/>
<path d="M386.5 150.503V143.503C332.923 139.174 283.484 134.469 240.5 141.003C184.5 152.003 131.389 193.607 132.5 232.503C133.085 252.995 152.5 266.638 184.5 265.503C255 263.003 317 213.503 336.5 161.003C320.916 162.818 309.776 162.661 293 161.003C300.5 193.003 247 254.003 198 252.503C175.5 252.503 167.627 237.216 168.5 224.503C170 189.003 207.573 157.547 273 150.503C308.258 147.776 341.812 150.104 386.5 150.503Z" fill="#274F4A" stroke="#274F4A"/>
<path d="M337 128.003C342.594 47.1978 295.52 0.562145 217.5 1.00293L132 0.502934V2.50298C145.45 3.33558 154.025 7.36422 153.5 40.503V170.003C165.79 156.346 174.512 151.175 188 146.503V10.0029C188 10.0029 221.5 9.50293 228.5 10.0029C280.5 14.5029 304 63.0029 294.5 128.003C312.653 125.505 318.742 125.277 337 128.003Z" fill="#D9988A" stroke="#D9988A"/>
<circle cx="245" cy="99.5029" r="14.5" fill="#D9988A" stroke="#D9988A"/>
<path d="M40.32 331.879C55.5947 331.879 66.944 335.719 74.368 343.399C81.792 350.994 85.504 361.916 85.504 376.167C85.504 385.468 83.6693 393.618 80 400.615C76.416 407.527 71.168 412.903 64.256 416.743C57.344 420.583 48.9813 422.503 39.168 422.503C37.888 422.503 36.1813 422.46 34.048 422.375C31.9147 422.29 29.696 422.247 27.392 422.247C25.1733 422.162 23.1253 422.119 21.248 422.119C18.2613 422.119 15.3173 422.162 12.416 422.247C9.51467 422.247 7.168 422.332 5.376 422.503V419.943C8.27733 419.772 10.4533 419.431 11.904 418.919C13.44 418.407 14.464 417.383 14.976 415.847C15.488 414.311 15.744 412.007 15.744 408.935V345.447C15.744 342.29 15.488 339.986 14.976 338.535C14.464 336.999 13.44 335.975 11.904 335.463C10.4533 334.866 8.27733 334.524 5.376 334.439V331.879C7.168 331.964 9.51467 332.092 12.416 332.263C15.3173 332.348 18.176 332.348 20.992 332.263C23.9787 332.178 27.3493 332.092 31.104 332.007C34.8587 331.922 37.9307 331.879 40.32 331.879ZM37.12 334.183C33.1947 334.183 30.6347 334.908 29.44 336.359C28.2453 337.81 27.648 340.754 27.648 345.191V409.191C27.648 413.628 28.2453 416.572 29.44 418.023C30.72 419.474 33.3227 420.199 37.248 420.199C46.5493 420.199 53.76 418.535 58.88 415.207C64 411.794 67.584 406.844 69.632 400.359C71.68 393.874 72.704 385.98 72.704 376.679C72.704 367.122 71.552 359.228 69.248 352.999C67.0293 346.684 63.3173 341.991 58.112 338.919C52.992 335.762 45.9947 334.183 37.12 334.183ZM175.465 331.879V334.439C172.564 334.524 170.345 334.951 168.809 335.719C167.358 336.487 166.377 337.724 165.865 339.431C165.353 341.138 165.097 343.57 165.097 346.727V385.255C165.097 391.228 164.713 396.434 163.945 400.871C163.177 405.308 161.812 409.148 159.849 412.391C157.716 415.975 154.601 418.876 150.505 421.095C146.409 423.228 141.716 424.295 136.425 424.295C132.329 424.295 128.404 423.783 124.649 422.759C120.98 421.82 117.737 420.028 114.921 417.383C112.446 414.994 110.484 412.476 109.033 409.831C107.668 407.186 106.729 403.943 106.217 400.103C105.705 396.263 105.449 391.442 105.449 385.639V345.447C105.449 342.29 105.193 339.986 104.681 338.535C104.169 336.999 103.145 335.975 101.609 335.463C100.158 334.866 97.9823 334.524 95.081 334.439V331.879C96.873 331.964 99.2197 332.05 102.121 332.135C105.022 332.22 108.137 332.263 111.465 332.263C114.452 332.263 117.396 332.22 120.297 332.135C123.284 332.05 125.758 331.964 127.721 331.879V334.439C124.82 334.524 122.601 334.866 121.065 335.463C119.614 335.975 118.633 336.999 118.121 338.535C117.609 339.986 117.353 342.29 117.353 345.447V387.815C117.353 392.167 117.566 396.306 117.993 400.231C118.42 404.071 119.273 407.484 120.553 410.471C121.918 413.372 123.966 415.676 126.697 417.383C129.428 419.004 133.054 419.815 137.577 419.815C144.062 419.815 149.054 418.407 152.553 415.591C156.137 412.69 158.612 408.722 159.977 403.687C161.428 398.652 162.153 392.978 162.153 386.663V346.727C162.153 343.57 161.769 341.138 161.001 339.431C160.318 337.724 159.124 336.487 157.417 335.719C155.71 334.951 153.406 334.524 150.505 334.439V331.879C152.041 331.964 154.046 332.05 156.521 332.135C159.081 332.22 161.428 332.263 163.561 332.263C165.78 332.263 167.956 332.22 170.089 332.135C172.308 332.05 174.1 331.964 175.465 331.879ZM225.613 330.087C233.72 330.087 240.802 331.922 246.861 335.591C253.005 339.26 257.741 344.551 261.069 351.463C264.482 358.29 266.189 366.61 266.189 376.423C266.189 385.98 264.44 394.343 260.941 401.511C257.528 408.679 252.749 414.268 246.605 418.279C240.461 422.29 233.421 424.295 225.485 424.295C217.378 424.295 210.253 422.46 204.109 418.791C198.05 415.122 193.314 409.831 189.901 402.919C186.573 396.007 184.909 387.687 184.909 377.959C184.909 368.402 186.658 360.039 190.157 352.871C193.656 345.703 198.434 340.114 204.493 336.103C210.637 332.092 217.677 330.087 225.613 330.087ZM225.101 332.391C219.554 332.391 214.733 334.311 210.637 338.151C206.541 341.991 203.341 347.282 201.037 354.023C198.818 360.764 197.709 368.572 197.709 377.447C197.709 386.492 198.946 394.386 201.421 401.127C203.981 407.783 207.394 412.946 211.661 416.615C216.013 420.199 220.792 421.991 225.997 421.991C231.544 421.991 236.365 420.071 240.461 416.231C244.557 412.391 247.714 407.1 249.933 400.359C252.237 393.532 253.389 385.724 253.389 376.935C253.389 367.804 252.109 359.911 249.549 353.255C247.074 346.599 243.704 341.479 239.437 337.895C235.17 334.226 230.392 332.391 225.101 332.391Z" fill="#274F4A"/>
<path d="M363.755 422.503V419.943C366.656 419.772 368.832 419.431 370.283 418.919C371.819 418.407 372.843 417.383 373.355 415.847C373.867 414.311 374.123 412.007 374.123 408.935V345.447C374.123 342.29 373.867 339.986 373.355 338.535C372.843 336.999 371.819 335.975 370.283 335.463C368.832 334.866 366.656 334.524 363.755 334.439V331.879C365.718 331.964 368.192 332.05 371.179 332.135C374.166 332.22 377.11 332.263 380.011 332.263C383.339 332.263 386.454 332.22 389.355 332.135C392.256 332.05 394.603 331.964 396.395 331.879V334.439C393.494 334.524 391.275 334.866 389.739 335.463C388.288 335.975 387.307 336.999 386.795 338.535C386.283 339.986 386.027 342.29 386.027 345.447V408.935C386.027 412.007 386.283 414.311 386.795 415.847C387.307 417.383 388.288 418.407 389.739 418.919C391.275 419.431 393.494 419.772 396.395 419.943V422.503C394.603 422.332 392.256 422.247 389.355 422.247C386.454 422.162 383.339 422.119 380.011 422.119C377.11 422.119 374.166 422.162 371.179 422.247C368.192 422.247 365.718 422.332 363.755 422.503ZM310.251 422.503V419.943C313.152 419.772 315.328 419.431 316.779 418.919C318.315 418.407 319.339 417.383 319.851 415.847C320.363 414.311 320.619 412.007 320.619 408.935V345.447C320.619 342.29 320.363 339.986 319.851 338.535C319.339 336.999 318.315 335.975 316.779 335.463C315.328 334.866 313.152 334.524 310.251 334.439V331.879C312.043 331.964 314.39 332.05 317.291 332.135C320.192 332.22 323.307 332.263 326.635 332.263C329.622 332.263 332.566 332.22 335.467 332.135C338.454 332.05 340.928 331.964 342.891 331.879V334.439C339.99 334.524 337.771 334.866 336.235 335.463C334.784 335.975 333.803 336.999 333.291 338.535C332.779 339.986 332.523 342.29 332.523 345.447V408.935C332.523 412.007 332.779 414.311 333.291 415.847C333.803 417.383 334.784 418.407 336.235 418.919C337.771 419.431 339.99 419.772 342.891 419.943V422.503C340.928 422.332 338.454 422.247 335.467 422.247C332.566 422.162 329.622 422.119 326.635 422.119C323.307 422.119 320.192 422.162 317.291 422.247C314.39 422.247 312.043 422.332 310.251 422.503ZM328.043 378.215V375.655H378.603V378.215H328.043ZM485.59 331.879V334.439C482.689 334.524 480.47 334.951 478.934 335.719C477.483 336.487 476.502 337.724 475.99 339.431C475.478 341.138 475.222 343.57 475.222 346.727V385.255C475.222 391.228 474.838 396.434 474.07 400.871C473.302 405.308 471.937 409.148 469.974 412.391C467.841 415.975 464.726 418.876 460.63 421.095C456.534 423.228 451.841 424.295 446.55 424.295C442.454 424.295 438.529 423.783 434.774 422.759C431.105 421.82 427.862 420.028 425.046 417.383C422.571 414.994 420.609 412.476 419.158 409.831C417.793 407.186 416.854 403.943 416.342 400.103C415.83 396.263 415.574 391.442 415.574 385.639V345.447C415.574 342.29 415.318 339.986 414.806 338.535C414.294 336.999 413.27 335.975 411.734 335.463C410.283 334.866 408.107 334.524 405.206 334.439V331.879C406.998 331.964 409.345 332.05 412.246 332.135C415.147 332.22 418.262 332.263 421.59 332.263C424.577 332.263 427.521 332.22 430.422 332.135C433.409 332.05 435.883 331.964 437.846 331.879V334.439C434.945 334.524 432.726 334.866 431.19 335.463C429.739 335.975 428.758 336.999 428.246 338.535C427.734 339.986 427.478 342.29 427.478 345.447V387.815C427.478 392.167 427.691 396.306 428.118 400.231C428.545 404.071 429.398 407.484 430.678 410.471C432.043 413.372 434.091 415.676 436.822 417.383C439.553 419.004 443.179 419.815 447.702 419.815C454.187 419.815 459.179 418.407 462.678 415.591C466.262 412.69 468.737 408.722 470.102 403.687C471.553 398.652 472.278 392.978 472.278 386.663V346.727C472.278 343.57 471.894 341.138 471.126 339.431C470.443 337.724 469.249 336.487 467.542 335.719C465.835 334.951 463.531 334.524 460.63 334.439V331.879C462.166 331.964 464.171 332.05 466.646 332.135C469.206 332.22 471.553 332.263 473.686 332.263C475.905 332.263 478.081 332.22 480.214 332.135C482.433 332.05 484.225 331.964 485.59 331.879ZM494.376 331.879C496.168 331.964 498.515 332.05 501.416 332.135C504.317 332.22 507.176 332.263 509.992 332.263C514.003 332.263 517.843 332.22 521.512 332.135C525.181 332.05 527.784 332.007 529.32 332.007C538.28 332.007 545.021 333.884 549.544 337.639C554.067 341.394 556.328 346.215 556.328 352.103C556.328 355.09 555.688 358.034 554.408 360.935C553.213 363.751 551.165 366.354 548.264 368.743C545.448 371.047 541.651 372.924 536.872 374.375V374.631C543.613 375.484 548.861 377.106 552.616 379.495C556.456 381.799 559.144 384.53 560.68 387.687C562.216 390.844 562.984 394.172 562.984 397.671C562.984 402.535 561.747 406.844 559.272 410.599C556.883 414.268 553.384 417.17 548.776 419.303C544.168 421.436 538.664 422.503 532.264 422.503C530.387 422.503 527.571 422.46 523.816 422.375C520.061 422.204 515.539 422.119 510.248 422.119C507.261 422.119 504.317 422.162 501.416 422.247C498.515 422.247 496.168 422.332 494.376 422.503V419.943C497.277 419.772 499.453 419.431 500.904 418.919C502.44 418.407 503.464 417.383 503.976 415.847C504.488 414.311 504.744 412.007 504.744 408.935V345.447C504.744 342.29 504.488 339.986 503.976 338.535C503.464 336.999 502.44 335.975 500.904 335.463C499.453 334.866 497.277 334.524 494.376 334.439V331.879ZM526.12 334.439C522.195 334.439 519.635 335.164 518.44 336.615C517.245 338.066 516.648 341.01 516.648 345.447V408.935C516.648 411.922 516.904 414.183 517.416 415.719C517.928 417.255 518.867 418.279 520.232 418.791C521.597 419.303 523.603 419.559 526.248 419.559C534.611 419.559 540.669 417.639 544.424 413.799C548.264 409.874 550.184 404.327 550.184 397.159C550.184 390.588 548.392 385.511 544.808 381.927C541.309 378.343 535.507 376.551 527.4 376.551H514.216C514.216 376.551 514.216 376.21 514.216 375.527C514.216 374.759 514.216 374.375 514.216 374.375H525.224C530.259 374.375 534.141 373.436 536.872 371.559C539.603 369.596 541.48 367.036 542.504 363.879C543.528 360.636 544.04 357.18 544.04 353.511C544.04 347.196 542.632 342.46 539.816 339.303C537.085 336.06 532.52 334.439 526.12 334.439Z" fill="#D9988A"/>
<path d="M59.196 511.503V482.412H77.4347V486.19H63.5852V495.054H76.483V498.818H63.5852V507.725H77.6051V511.503H59.196ZM101.298 482.412H106.624L115.886 505.026H116.227L125.488 482.412H130.815V511.503H126.638V490.452H126.369L117.789 511.46H114.323L105.744 490.438H105.474V511.503H101.298V482.412ZM155.196 511.503V482.412H165.565C167.829 482.412 169.704 482.824 171.19 483.648C172.677 484.472 173.79 485.599 174.528 487.029C175.267 488.449 175.636 490.049 175.636 491.83C175.636 493.619 175.262 495.229 174.514 496.659C173.776 498.08 172.658 499.207 171.162 500.04C169.675 500.864 167.805 501.276 165.551 501.276H158.42V497.554H165.153C166.583 497.554 167.743 497.308 168.634 496.815C169.524 496.314 170.177 495.632 170.594 494.77C171.01 493.908 171.219 492.928 171.219 491.83C171.219 490.731 171.01 489.756 170.594 488.904C170.177 488.051 169.519 487.384 168.619 486.901C167.729 486.418 166.555 486.176 165.097 486.176H159.585V511.503H155.196ZM198.782 511.503V482.412H209.151C211.405 482.412 213.275 482.8 214.762 483.577C216.258 484.353 217.376 485.428 218.114 486.801C218.853 488.165 219.222 489.742 219.222 491.531C219.222 493.312 218.848 494.879 218.1 496.233C217.362 497.578 216.244 498.624 214.748 499.372C213.261 500.12 211.391 500.494 209.137 500.494H201.282V496.716H208.739C210.16 496.716 211.315 496.512 212.205 496.105C213.105 495.698 213.763 495.106 214.18 494.33C214.596 493.553 214.805 492.62 214.805 491.531C214.805 490.433 214.592 489.481 214.165 488.676C213.749 487.871 213.091 487.256 212.191 486.83C211.301 486.394 210.131 486.176 208.683 486.176H203.171V511.503H198.782ZM213.143 498.378L220.33 511.503H215.33L208.285 498.378H213.143ZM242.563 511.503V482.412H260.802V486.19H246.952V495.054H259.85V498.818H246.952V507.725H260.972V511.503H242.563ZM300.531 490.054C300.38 488.709 299.755 487.668 298.656 486.929C297.558 486.181 296.175 485.807 294.509 485.807C293.315 485.807 292.283 485.996 291.412 486.375C290.541 486.744 289.864 487.256 289.381 487.909C288.907 488.553 288.67 489.287 288.67 490.111C288.67 490.802 288.831 491.399 289.153 491.901C289.485 492.403 289.916 492.824 290.446 493.165C290.986 493.496 291.563 493.776 292.179 494.003C292.795 494.221 293.386 494.401 293.955 494.543L296.795 495.281C297.723 495.509 298.675 495.816 299.651 496.205C300.626 496.593 301.53 497.104 302.364 497.739C303.197 498.373 303.869 499.159 304.381 500.097C304.902 501.034 305.162 502.156 305.162 503.463C305.162 505.111 304.736 506.574 303.884 507.852C303.041 509.131 301.814 510.139 300.205 510.878C298.604 511.617 296.668 511.986 294.395 511.986C292.217 511.986 290.332 511.64 288.741 510.949C287.151 510.258 285.905 509.278 285.006 508.009C284.106 506.73 283.609 505.215 283.514 503.463H287.918C288.003 504.514 288.344 505.39 288.94 506.091C289.546 506.782 290.318 507.298 291.256 507.639C292.203 507.971 293.24 508.136 294.366 508.136C295.607 508.136 296.71 507.942 297.676 507.554C298.652 507.156 299.419 506.607 299.977 505.906C300.536 505.196 300.815 504.368 300.815 503.421C300.815 502.559 300.569 501.853 300.077 501.304C299.594 500.755 298.936 500.3 298.102 499.94C297.278 499.581 296.346 499.263 295.304 498.989L291.866 498.051C289.537 497.417 287.69 496.484 286.327 495.253C284.973 494.022 284.295 492.393 284.295 490.367C284.295 488.69 284.75 487.227 285.659 485.977C286.568 484.727 287.799 483.757 289.352 483.065C290.905 482.365 292.657 482.014 294.608 482.014C296.578 482.014 298.315 482.36 299.821 483.051C301.336 483.743 302.529 484.694 303.401 485.906C304.272 487.109 304.726 488.492 304.764 490.054H300.531ZM330.63 511.503H325.971L336.44 482.412H341.511L351.979 511.503H347.32L339.096 487.696H338.869L330.63 511.503ZM331.411 500.111H346.525V503.804H331.411V500.111ZM374.18 511.503V482.412H384.55C386.804 482.412 388.674 482.8 390.161 483.577C391.657 484.353 392.774 485.428 393.513 486.801C394.251 488.165 394.621 489.742 394.621 491.531C394.621 493.312 394.247 494.879 393.499 496.233C392.76 497.578 391.643 498.624 390.146 499.372C388.66 500.12 386.789 500.494 384.536 500.494H376.68V496.716H384.138C385.558 496.716 386.714 496.512 387.604 496.105C388.503 495.698 389.161 495.106 389.578 494.33C389.995 493.553 390.203 492.62 390.203 491.531C390.203 490.433 389.99 489.481 389.564 488.676C389.147 487.871 388.489 487.256 387.589 486.83C386.699 486.394 385.53 486.176 384.081 486.176H378.57V511.503H374.18ZM388.541 498.378L395.729 511.503H390.729L383.683 498.378H388.541ZM422.351 482.412V511.503H417.962V482.412H422.351ZM449.2 511.503H444.541L455.01 482.412H460.081L470.55 511.503H465.891L457.666 487.696H457.439L449.2 511.503ZM449.982 500.111H465.095V503.804H449.982V500.111ZM492.751 511.503V482.412H497.14V507.725H510.322V511.503H492.751Z" fill="#274F4A"/>
</svg>
