<svg width="720" height="720" viewBox="0 0 720 720" fill="none" xmlns="http://www.w3.org/2000/svg">
<path d="M446 171.467V169.467H512.5V171.467C500.004 172.755 496.088 177.205 496 193.467V365.467C495.854 380.08 500.162 384.376 513 387.467V389.467H445V387.467C461.097 383.302 461.99 377.493 462 365.467V193.467C462.233 181.956 459.968 172.585 446 171.467Z" fill="#274F4A" stroke="#274F4A"/>
<path d="M461.5 276.467V269.467C407.923 265.138 358.485 260.433 315.5 266.967C259.5 277.967 206.389 319.571 207.5 358.467C208.086 378.959 227.5 392.602 259.5 391.467C330 388.967 392 339.467 411.5 286.967C395.916 288.782 384.776 288.625 368 286.967C375.5 318.967 322 379.967 273 378.467C250.5 378.467 242.627 363.18 243.5 350.467C245 314.967 282.573 283.511 348 276.467C383.259 273.74 416.813 276.068 461.5 276.467Z" fill="#274F4A" stroke="#274F4A"/>
<path d="M412 253.967C417.594 173.162 370.52 126.526 292.5 126.967L207 126.467V128.467C220.45 129.3 229.025 133.328 228.5 166.467V295.967C240.79 282.31 249.512 277.139 263 272.467V135.967C263 135.967 296.5 135.467 303.5 135.967C355.5 140.467 379 188.967 369.5 253.967C387.653 251.469 393.742 251.241 412 253.967Z" fill="#D9988A" stroke="#D9988A"/>
<circle cx="320" cy="225.467" r="14.5" fill="#D9988A" stroke="#D9988A"/>
<g clip-path="url(#clip0_31_52)">
<path d="M70.8835 573.632C70.6089 572.771 70.2396 571.999 69.7756 571.317C69.321 570.626 68.7765 570.039 68.142 569.556C67.5076 569.063 66.7831 568.689 65.9688 568.434C65.1638 568.178 64.2784 568.05 63.3125 568.05C61.6742 568.05 60.197 568.471 58.8807 569.314C57.5644 570.157 56.5227 571.393 55.7557 573.022C54.9981 574.641 54.6193 576.625 54.6193 578.973C54.6193 581.331 55.0028 583.325 55.7699 584.953C56.5369 586.582 57.5881 587.818 58.9233 588.661C60.2585 589.504 61.7784 589.925 63.483 589.925C65.0644 589.925 66.4422 589.603 67.6165 588.959C68.8002 588.315 69.714 587.406 70.358 586.232C71.0114 585.048 71.3381 583.656 71.3381 582.056L72.4744 582.269H64.1506V578.647H75.5852V581.956C75.5852 584.399 75.0644 586.521 74.0227 588.32C72.9905 590.11 71.5606 591.492 69.733 592.468C67.9148 593.443 65.8314 593.931 63.483 593.931C60.8504 593.931 58.5398 593.325 56.5511 592.113C54.572 590.9 53.0284 589.182 51.9205 586.956C50.8125 584.721 50.2585 582.07 50.2585 579.002C50.2585 576.682 50.5805 574.598 51.2244 572.752C51.8684 570.905 52.7727 569.338 53.9375 568.05C55.1117 566.753 56.4896 565.763 58.071 565.081C59.6619 564.39 61.3996 564.044 63.2841 564.044C64.8561 564.044 66.3191 564.276 67.6733 564.74C69.0369 565.204 70.2491 565.863 71.3097 566.715C72.3797 567.567 73.2652 568.58 73.9659 569.755C74.6667 570.919 75.1402 572.212 75.3864 573.632H70.8835ZM99.157 593.533V564.442H117.396V568.22H103.546V577.084H116.444V580.848H103.546V589.755H117.566V593.533H99.157ZM157.125 572.084C156.973 570.739 156.348 569.698 155.25 568.959C154.152 568.211 152.769 567.837 151.102 567.837C149.909 567.837 148.877 568.026 148.006 568.405C147.134 568.774 146.457 569.286 145.974 569.939C145.501 570.583 145.264 571.317 145.264 572.141C145.264 572.832 145.425 573.429 145.747 573.931C146.079 574.433 146.509 574.854 147.04 575.195C147.58 575.526 148.157 575.806 148.773 576.033C149.388 576.251 149.98 576.431 150.548 576.573L153.389 577.311C154.317 577.539 155.269 577.846 156.244 578.235C157.22 578.623 158.124 579.134 158.957 579.769C159.791 580.403 160.463 581.189 160.974 582.127C161.495 583.064 161.756 584.186 161.756 585.493C161.756 587.141 161.33 588.604 160.477 589.882C159.634 591.161 158.408 592.169 156.798 592.908C155.198 593.647 153.261 594.016 150.989 594.016C148.811 594.016 146.926 593.67 145.335 592.979C143.744 592.288 142.499 591.308 141.599 590.039C140.7 588.76 140.203 587.245 140.108 585.493H144.511C144.597 586.544 144.938 587.42 145.534 588.121C146.14 588.812 146.912 589.328 147.849 589.669C148.796 590.001 149.833 590.166 150.96 590.166C152.201 590.166 153.304 589.972 154.27 589.584C155.245 589.186 156.012 588.637 156.571 587.936C157.13 587.226 157.409 586.398 157.409 585.451C157.409 584.589 157.163 583.883 156.67 583.334C156.188 582.785 155.529 582.33 154.696 581.97C153.872 581.611 152.939 581.293 151.898 581.019L148.46 580.081C146.131 579.447 144.284 578.514 142.92 577.283C141.566 576.052 140.889 574.423 140.889 572.397C140.889 570.72 141.344 569.257 142.253 568.007C143.162 566.757 144.393 565.787 145.946 565.095C147.499 564.395 149.251 564.044 151.202 564.044C153.171 564.044 154.909 564.39 156.415 565.081C157.93 565.773 159.123 566.724 159.994 567.936C160.866 569.139 161.32 570.522 161.358 572.084H157.125ZM183.566 568.22V564.442H206.08V568.22H197.004V593.533H192.629V568.22H183.566ZM228.075 593.533H223.416L233.885 564.442H238.956L249.425 593.533H244.766L236.541 569.726H236.314L228.075 593.533ZM228.857 582.141H243.97V585.834H228.857V582.141ZM232.152 561.559L229.283 561.459C229.283 559.897 229.709 558.647 230.561 557.709C231.413 556.772 232.46 556.298 233.7 556.289C234.287 556.289 234.799 556.388 235.234 556.587C235.67 556.776 236.077 556.999 236.456 557.255C236.835 557.51 237.218 557.738 237.607 557.936C237.995 558.126 238.426 558.22 238.899 558.22C239.439 558.211 239.879 558.003 240.22 557.595C240.571 557.179 240.746 556.663 240.746 556.047L243.558 556.232C243.549 557.813 243.118 559.059 242.266 559.968C241.423 560.867 240.381 561.317 239.141 561.317C238.468 561.317 237.91 561.222 237.464 561.033C237.019 560.834 236.626 560.612 236.286 560.365C235.945 560.11 235.594 559.887 235.234 559.698C234.875 559.499 234.444 559.399 233.942 559.399C233.421 559.399 232.99 559.603 232.649 560.01C232.318 560.417 232.152 560.934 232.152 561.559ZM295.528 578.988C295.528 582.094 294.96 584.764 293.824 586.999C292.688 589.224 291.13 590.938 289.151 592.141C287.181 593.334 284.941 593.931 282.432 593.931C279.913 593.931 277.664 593.334 275.685 592.141C273.715 590.938 272.162 589.22 271.026 586.985C269.889 584.75 269.321 582.084 269.321 578.988C269.321 575.881 269.889 573.216 271.026 570.99C272.162 568.755 273.715 567.041 275.685 565.848C277.664 564.646 279.913 564.044 282.432 564.044C284.941 564.044 287.181 564.646 289.151 565.848C291.13 567.041 292.688 568.755 293.824 570.99C294.96 573.216 295.528 575.881 295.528 578.988ZM291.182 578.988C291.182 576.62 290.798 574.627 290.031 573.007C289.274 571.379 288.232 570.148 286.906 569.314C285.59 568.471 284.098 568.05 282.432 568.05C280.756 568.05 279.259 568.471 277.943 569.314C276.627 570.148 275.585 571.379 274.818 573.007C274.061 574.627 273.682 576.62 273.682 578.988C273.682 581.355 274.061 583.353 274.818 584.982C275.585 586.601 276.627 587.832 277.943 588.675C279.259 589.508 280.756 589.925 282.432 589.925C284.098 589.925 285.59 589.508 286.906 588.675C288.232 587.832 289.274 586.601 290.031 584.982C290.798 583.353 291.182 581.355 291.182 578.988ZM371.749 573.902H367.317C367.146 572.955 366.829 572.122 366.365 571.402C365.901 570.683 365.333 570.072 364.661 569.57C363.988 569.068 363.235 568.689 362.402 568.434C361.578 568.178 360.702 568.05 359.774 568.05C358.098 568.05 356.597 568.471 355.271 569.314C353.955 570.157 352.913 571.393 352.146 573.022C351.389 574.65 351.01 576.639 351.01 578.988C351.01 581.355 351.389 583.353 352.146 584.982C352.913 586.611 353.96 587.842 355.286 588.675C356.611 589.508 358.103 589.925 359.76 589.925C360.679 589.925 361.55 589.802 362.374 589.556C363.207 589.3 363.96 588.926 364.632 588.434C365.304 587.941 365.873 587.34 366.337 586.63C366.81 585.91 367.137 585.086 367.317 584.158L371.749 584.172C371.512 585.602 371.053 586.918 370.371 588.121C369.698 589.314 368.832 590.346 367.771 591.218C366.72 592.079 365.518 592.747 364.163 593.22C362.809 593.694 361.332 593.931 359.732 593.931C357.213 593.931 354.968 593.334 352.999 592.141C351.029 590.938 349.476 589.22 348.339 586.985C347.213 584.75 346.649 582.084 346.649 578.988C346.649 575.881 347.217 573.216 348.354 570.99C349.49 568.755 351.043 567.041 353.013 565.848C354.982 564.646 357.222 564.044 359.732 564.044C361.275 564.044 362.714 564.267 364.05 564.712C365.394 565.148 366.602 565.791 367.672 566.644C368.742 567.487 369.627 568.519 370.328 569.74C371.029 570.952 371.502 572.34 371.749 573.902ZM420.271 578.988C420.271 582.094 419.702 584.764 418.566 586.999C417.43 589.224 415.872 590.938 413.893 592.141C411.923 593.334 409.683 593.931 407.174 593.931C404.655 593.931 402.406 593.334 400.427 592.141C398.457 590.938 396.904 589.22 395.768 586.985C394.631 584.75 394.063 582.084 394.063 578.988C394.063 575.881 394.631 573.216 395.768 570.99C396.904 568.755 398.457 567.041 400.427 565.848C402.406 564.646 404.655 564.044 407.174 564.044C409.683 564.044 411.923 564.646 413.893 565.848C415.872 567.041 417.43 568.755 418.566 570.99C419.702 573.216 420.271 575.881 420.271 578.988ZM415.924 578.988C415.924 576.62 415.54 574.627 414.773 573.007C414.016 571.379 412.974 570.148 411.648 569.314C410.332 568.471 408.841 568.05 407.174 568.05C405.498 568.05 404.002 568.471 402.685 569.314C401.369 570.148 400.327 571.379 399.56 573.007C398.803 574.627 398.424 576.62 398.424 578.988C398.424 581.355 398.803 583.353 399.56 584.982C400.327 586.601 401.369 587.832 402.685 588.675C404.002 589.508 405.498 589.925 407.174 589.925C408.841 589.925 410.332 589.508 411.648 588.675C412.974 587.832 414.016 586.601 414.773 584.982C415.54 583.353 415.924 581.355 415.924 578.988ZM467.223 564.442V593.533H463.189L448.402 572.198H448.132V593.533H443.743V564.442H447.805L462.607 585.806H462.876V564.442H467.223ZM490.191 568.22V564.442H512.705V568.22H503.629V593.533H499.254V568.22H490.191ZM534.7 593.533H530.041L540.51 564.442H545.581L556.05 593.533H551.391L543.166 569.726H542.939L534.7 593.533ZM535.482 582.141H550.595V585.834H535.482V582.141ZM541.291 561.53L544.615 554.982H549.089L544.686 561.53H541.291ZM578.251 593.533V564.442H588.904C590.969 564.442 592.678 564.783 594.032 565.465C595.386 566.137 596.399 567.051 597.072 568.206C597.744 569.352 598.08 570.645 598.08 572.084C598.08 573.296 597.858 574.319 597.413 575.152C596.968 575.976 596.371 576.639 595.623 577.141C594.884 577.633 594.07 577.993 593.18 578.22V578.505C594.146 578.552 595.088 578.864 596.006 579.442C596.934 580.01 597.701 580.82 598.308 581.871C598.914 582.922 599.217 584.201 599.217 585.706C599.217 587.193 598.866 588.528 598.165 589.712C597.474 590.886 596.404 591.819 594.955 592.51C593.506 593.192 591.655 593.533 589.401 593.533H578.251ZM582.64 589.769H588.975C591.077 589.769 592.583 589.362 593.492 588.547C594.401 587.733 594.856 586.715 594.856 585.493C594.856 584.575 594.624 583.732 594.16 582.965C593.696 582.198 593.033 581.587 592.171 581.132C591.319 580.678 590.306 580.451 589.131 580.451H582.64V589.769ZM582.64 577.027H588.521C589.505 577.027 590.391 576.838 591.177 576.459C591.972 576.08 592.602 575.55 593.066 574.868C593.54 574.177 593.776 573.363 593.776 572.425C593.776 571.222 593.355 570.214 592.512 569.399C591.669 568.585 590.377 568.178 588.634 568.178H582.64V577.027ZM626.812 564.442V593.533H622.423V564.442H626.812ZM651.204 593.533V564.442H655.593V589.755H668.775V593.533H651.204Z" fill="#274F4A"/>
<path d="M115.32 447.909C130.595 447.909 141.944 451.749 149.368 459.429C156.792 467.024 160.504 477.946 160.504 492.197C160.504 501.498 158.669 509.648 155 516.645C151.416 523.557 146.168 528.933 139.256 532.773C132.344 536.613 123.981 538.533 114.168 538.533C112.888 538.533 111.181 538.49 109.048 538.405C106.915 538.32 104.696 538.277 102.392 538.277C100.173 538.192 98.1253 538.149 96.248 538.149C93.2613 538.149 90.3173 538.192 87.416 538.277C84.5147 538.277 82.168 538.362 80.376 538.533V535.973C83.2773 535.802 85.4533 535.461 86.904 534.949C88.44 534.437 89.464 533.413 89.976 531.877C90.488 530.341 90.744 528.037 90.744 524.965V461.477C90.744 458.32 90.488 456.016 89.976 454.565C89.464 453.029 88.44 452.005 86.904 451.493C85.4533 450.896 83.2773 450.554 80.376 450.469V447.909C82.168 447.994 84.5147 448.122 87.416 448.293C90.3173 448.378 93.176 448.378 95.992 448.293C98.9787 448.208 102.349 448.122 106.104 448.037C109.859 447.952 112.931 447.909 115.32 447.909ZM112.12 450.213C108.195 450.213 105.635 450.938 104.44 452.389C103.245 453.84 102.648 456.784 102.648 461.221V525.221C102.648 529.658 103.245 532.602 104.44 534.053C105.72 535.504 108.323 536.229 112.248 536.229C121.549 536.229 128.76 534.565 133.88 531.237C139 527.824 142.584 522.874 144.632 516.389C146.68 509.904 147.704 502.01 147.704 492.709C147.704 483.152 146.552 475.258 144.248 469.029C142.029 462.714 138.317 458.021 133.112 454.949C127.992 451.792 120.995 450.213 112.12 450.213ZM250.465 447.909V450.469C247.564 450.554 245.345 450.981 243.809 451.749C242.358 452.517 241.377 453.754 240.865 455.461C240.353 457.168 240.097 459.6 240.097 462.757V501.285C240.097 507.258 239.713 512.464 238.945 516.901C238.177 521.338 236.812 525.178 234.849 528.421C232.716 532.005 229.601 534.906 225.505 537.125C221.409 539.258 216.716 540.325 211.425 540.325C207.329 540.325 203.404 539.813 199.649 538.789C195.98 537.85 192.737 536.058 189.921 533.413C187.446 531.024 185.484 528.506 184.033 525.861C182.668 523.216 181.729 519.973 181.217 516.133C180.705 512.293 180.449 507.472 180.449 501.669V461.477C180.449 458.32 180.193 456.016 179.681 454.565C179.169 453.029 178.145 452.005 176.609 451.493C175.158 450.896 172.982 450.554 170.081 450.469V447.909C171.873 447.994 174.22 448.08 177.121 448.165C180.022 448.25 183.137 448.293 186.465 448.293C189.452 448.293 192.396 448.25 195.297 448.165C198.284 448.08 200.758 447.994 202.721 447.909V450.469C199.82 450.554 197.601 450.896 196.065 451.493C194.614 452.005 193.633 453.029 193.121 454.565C192.609 456.016 192.353 458.32 192.353 461.477V503.845C192.353 508.197 192.566 512.336 192.993 516.261C193.42 520.101 194.273 523.514 195.553 526.501C196.918 529.402 198.966 531.706 201.697 533.413C204.428 535.034 208.054 535.845 212.577 535.845C219.062 535.845 224.054 534.437 227.553 531.621C231.137 528.72 233.612 524.752 234.977 519.717C236.428 514.682 237.153 509.008 237.153 502.693V462.757C237.153 459.6 236.769 457.168 236.001 455.461C235.318 453.754 234.124 452.517 232.417 451.749C230.71 450.981 228.406 450.554 225.505 450.469V447.909C227.041 447.994 229.046 448.08 231.521 448.165C234.081 448.25 236.428 448.293 238.561 448.293C240.78 448.293 242.956 448.25 245.089 448.165C247.308 448.08 249.1 447.994 250.465 447.909ZM300.613 446.117C308.72 446.117 315.802 447.952 321.861 451.621C328.005 455.29 332.741 460.581 336.069 467.493C339.482 474.32 341.189 482.64 341.189 492.453C341.189 502.01 339.44 510.373 335.941 517.541C332.528 524.709 327.749 530.298 321.605 534.309C315.461 538.32 308.421 540.325 300.485 540.325C292.378 540.325 285.253 538.49 279.109 534.821C273.05 531.152 268.314 525.861 264.901 518.949C261.573 512.037 259.909 503.717 259.909 493.989C259.909 484.432 261.658 476.069 265.157 468.901C268.656 461.733 273.434 456.144 279.493 452.133C285.637 448.122 292.677 446.117 300.613 446.117ZM300.101 448.421C294.554 448.421 289.733 450.341 285.637 454.181C281.541 458.021 278.341 463.312 276.037 470.053C273.818 476.794 272.709 484.602 272.709 493.477C272.709 502.522 273.946 510.416 276.421 517.157C278.981 523.813 282.394 528.976 286.661 532.645C291.013 536.229 295.792 538.021 300.997 538.021C306.544 538.021 311.365 536.101 315.461 532.261C319.557 528.421 322.714 523.13 324.933 516.389C327.237 509.562 328.389 501.754 328.389 492.965C328.389 483.834 327.109 475.941 324.549 469.285C322.074 462.629 318.704 457.509 314.437 453.925C310.17 450.256 305.392 448.421 300.101 448.421Z" fill="#274F4A"/>
<path d="M438.755 538.533V535.973C441.656 535.802 443.832 535.461 445.283 534.949C446.819 534.437 447.843 533.413 448.355 531.877C448.867 530.341 449.123 528.037 449.123 524.965V461.477C449.123 458.32 448.867 456.016 448.355 454.565C447.843 453.029 446.819 452.005 445.283 451.493C443.832 450.896 441.656 450.554 438.755 450.469V447.909C440.718 447.994 443.192 448.08 446.179 448.165C449.166 448.25 452.11 448.293 455.011 448.293C458.339 448.293 461.454 448.25 464.355 448.165C467.256 448.08 469.603 447.994 471.395 447.909V450.469C468.494 450.554 466.275 450.896 464.739 451.493C463.288 452.005 462.307 453.029 461.795 454.565C461.283 456.016 461.027 458.32 461.027 461.477V524.965C461.027 528.037 461.283 530.341 461.795 531.877C462.307 533.413 463.288 534.437 464.739 534.949C466.275 535.461 468.494 535.802 471.395 535.973V538.533C469.603 538.362 467.256 538.277 464.355 538.277C461.454 538.192 458.339 538.149 455.011 538.149C452.11 538.149 449.166 538.192 446.179 538.277C443.192 538.277 440.718 538.362 438.755 538.533ZM385.251 538.533V535.973C388.152 535.802 390.328 535.461 391.779 534.949C393.315 534.437 394.339 533.413 394.851 531.877C395.363 530.341 395.619 528.037 395.619 524.965V461.477C395.619 458.32 395.363 456.016 394.851 454.565C394.339 453.029 393.315 452.005 391.779 451.493C390.328 450.896 388.152 450.554 385.251 450.469V447.909C387.043 447.994 389.39 448.08 392.291 448.165C395.192 448.25 398.307 448.293 401.635 448.293C404.622 448.293 407.566 448.25 410.467 448.165C413.454 448.08 415.928 447.994 417.891 447.909V450.469C414.99 450.554 412.771 450.896 411.235 451.493C409.784 452.005 408.803 453.029 408.291 454.565C407.779 456.016 407.523 458.32 407.523 461.477V524.965C407.523 528.037 407.779 530.341 408.291 531.877C408.803 533.413 409.784 534.437 411.235 534.949C412.771 535.461 414.99 535.802 417.891 535.973V538.533C415.928 538.362 413.454 538.277 410.467 538.277C407.566 538.192 404.622 538.149 401.635 538.149C398.307 538.149 395.192 538.192 392.291 538.277C389.39 538.277 387.043 538.362 385.251 538.533ZM403.043 494.245V491.685H453.603V494.245H403.043ZM560.59 447.909V450.469C557.689 450.554 555.47 450.981 553.934 451.749C552.483 452.517 551.502 453.754 550.99 455.461C550.478 457.168 550.222 459.6 550.222 462.757V501.285C550.222 507.258 549.838 512.464 549.07 516.901C548.302 521.338 546.937 525.178 544.974 528.421C542.841 532.005 539.726 534.906 535.63 537.125C531.534 539.258 526.841 540.325 521.55 540.325C517.454 540.325 513.529 539.813 509.774 538.789C506.105 537.85 502.862 536.058 500.046 533.413C497.571 531.024 495.609 528.506 494.158 525.861C492.793 523.216 491.854 519.973 491.342 516.133C490.83 512.293 490.574 507.472 490.574 501.669V461.477C490.574 458.32 490.318 456.016 489.806 454.565C489.294 453.029 488.27 452.005 486.734 451.493C485.283 450.896 483.107 450.554 480.206 450.469V447.909C481.998 447.994 484.345 448.08 487.246 448.165C490.147 448.25 493.262 448.293 496.59 448.293C499.577 448.293 502.521 448.25 505.422 448.165C508.409 448.08 510.883 447.994 512.846 447.909V450.469C509.945 450.554 507.726 450.896 506.19 451.493C504.739 452.005 503.758 453.029 503.246 454.565C502.734 456.016 502.478 458.32 502.478 461.477V503.845C502.478 508.197 502.691 512.336 503.118 516.261C503.545 520.101 504.398 523.514 505.678 526.501C507.043 529.402 509.091 531.706 511.822 533.413C514.553 535.034 518.179 535.845 522.702 535.845C529.187 535.845 534.179 534.437 537.678 531.621C541.262 528.72 543.737 524.752 545.102 519.717C546.553 514.682 547.278 509.008 547.278 502.693V462.757C547.278 459.6 546.894 457.168 546.126 455.461C545.443 453.754 544.249 452.517 542.542 451.749C540.835 450.981 538.531 450.554 535.63 450.469V447.909C537.166 447.994 539.171 448.08 541.646 448.165C544.206 448.25 546.553 448.293 548.686 448.293C550.905 448.293 553.081 448.25 555.214 448.165C557.433 448.08 559.225 447.994 560.59 447.909ZM569.376 447.909C571.168 447.994 573.515 448.08 576.416 448.165C579.317 448.25 582.176 448.293 584.992 448.293C589.003 448.293 592.843 448.25 596.512 448.165C600.181 448.08 602.784 448.037 604.32 448.037C613.28 448.037 620.021 449.914 624.544 453.669C629.067 457.424 631.328 462.245 631.328 468.133C631.328 471.12 630.688 474.064 629.408 476.965C628.213 479.781 626.165 482.384 623.264 484.773C620.448 487.077 616.651 488.954 611.872 490.405V490.661C618.613 491.514 623.861 493.136 627.616 495.525C631.456 497.829 634.144 500.56 635.68 503.717C637.216 506.874 637.984 510.202 637.984 513.701C637.984 518.565 636.747 522.874 634.272 526.629C631.883 530.298 628.384 533.2 623.776 535.333C619.168 537.466 613.664 538.533 607.264 538.533C605.387 538.533 602.571 538.49 598.816 538.405C595.061 538.234 590.539 538.149 585.248 538.149C582.261 538.149 579.317 538.192 576.416 538.277C573.515 538.277 571.168 538.362 569.376 538.533V535.973C572.277 535.802 574.453 535.461 575.904 534.949C577.44 534.437 578.464 533.413 578.976 531.877C579.488 530.341 579.744 528.037 579.744 524.965V461.477C579.744 458.32 579.488 456.016 578.976 454.565C578.464 453.029 577.44 452.005 575.904 451.493C574.453 450.896 572.277 450.554 569.376 450.469V447.909ZM601.12 450.469C597.195 450.469 594.635 451.194 593.44 452.645C592.245 454.096 591.648 457.04 591.648 461.477V524.965C591.648 527.952 591.904 530.213 592.416 531.749C592.928 533.285 593.867 534.309 595.232 534.821C596.597 535.333 598.603 535.589 601.248 535.589C609.611 535.589 615.669 533.669 619.424 529.829C623.264 525.904 625.184 520.357 625.184 513.189C625.184 506.618 623.392 501.541 619.808 497.957C616.309 494.373 610.507 492.581 602.4 492.581H589.216C589.216 492.581 589.216 492.24 589.216 491.557C589.216 490.789 589.216 490.405 589.216 490.405H600.224C605.259 490.405 609.141 489.466 611.872 487.589C614.603 485.626 616.48 483.066 617.504 479.909C618.528 476.666 619.04 473.21 619.04 469.541C619.04 463.226 617.632 458.49 614.816 455.333C612.085 452.09 607.52 450.469 601.12 450.469Z" fill="#D9988A"/>
</g>
<defs>
<clipPath id="clip0_31_52">
<rect width="720" height="202" fill="white" transform="translate(0 391.533)"/>
</clipPath>
</defs>
</svg>
