<svg width="1017" height="293" viewBox="0 0 1017 293" fill="none" xmlns="http://www.w3.org/2000/svg">
<path d="M253 58.9668V56.9668H319.5V58.9668C307.004 60.2547 303.088 64.7046 303 80.9668V252.967C302.854 267.58 307.162 271.876 320 274.967V276.967H252V274.967C268.097 270.802 268.99 264.993 269 252.967V80.9668C269.233 69.4553 266.968 60.0845 253 58.9668Z" fill="#274F4A" stroke="#274F4A"/>
<path d="M268.5 163.967V156.967C214.923 152.637 165.485 147.932 122.5 154.467C66.5002 165.467 13.3888 207.07 14.5 245.967C15.0855 266.458 34.5 280.101 66.5 278.967C137 276.467 199 226.967 218.5 174.467C202.916 176.282 191.776 176.124 175 174.467C182.5 206.467 129 267.467 80 265.967C57.5001 265.967 49.6274 250.68 50.4999 237.967C52 202.467 89.5734 171.011 155 163.967C190.259 161.239 223.813 163.568 268.5 163.967Z" fill="#274F4A" stroke="#274F4A"/>
<path d="M219 141.467C224.594 60.6619 177.52 14.0263 99.5 14.467L14 13.967V15.9671C27.4499 16.7997 36.0248 20.8283 35.5 53.9671V183.467C47.7902 169.81 56.5117 164.639 70 159.967V23.467C70 23.467 103.5 22.967 110.5 23.467C162.5 27.967 186 76.467 176.5 141.467C194.653 138.969 200.742 138.741 219 141.467Z" fill="#D9988A" stroke="#D9988A"/>
<circle cx="127" cy="112.967" r="14.5" fill="#D9988A" stroke="#D9988A"/>
<g clip-path="url(#clip0_28_94)">
<path d="M402.884 226.599C402.609 225.738 402.24 224.966 401.776 224.284C401.321 223.593 400.777 223.006 400.142 222.523C399.508 222.03 398.783 221.656 397.969 221.401C397.164 221.145 396.278 221.017 395.312 221.017C393.674 221.017 392.197 221.438 390.881 222.281C389.564 223.124 388.523 224.36 387.756 225.989C386.998 227.608 386.619 229.592 386.619 231.94C386.619 234.298 387.003 236.292 387.77 237.92C388.537 239.549 389.588 240.785 390.923 241.628C392.259 242.471 393.778 242.892 395.483 242.892C397.064 242.892 398.442 242.57 399.616 241.926C400.8 241.282 401.714 240.373 402.358 239.199C403.011 238.015 403.338 236.623 403.338 235.023L404.474 235.236H396.151V231.614H407.585V234.923C407.585 237.366 407.064 239.488 406.023 241.287C404.991 243.077 403.561 244.459 401.733 245.435C399.915 246.41 397.831 246.898 395.483 246.898C392.85 246.898 390.54 246.292 388.551 245.08C386.572 243.867 385.028 242.149 383.92 239.923C382.813 237.688 382.259 235.037 382.259 231.969C382.259 229.649 382.58 227.565 383.224 225.719C383.868 223.872 384.773 222.305 385.938 221.017C387.112 219.72 388.49 218.73 390.071 218.048C391.662 217.357 393.4 217.011 395.284 217.011C396.856 217.011 398.319 217.243 399.673 217.707C401.037 218.171 402.249 218.83 403.31 219.682C404.38 220.534 405.265 221.547 405.966 222.722C406.667 223.886 407.14 225.179 407.386 226.599H402.884ZM431.157 246.5V217.409H449.396V221.188H435.546V230.051H448.444V233.815H435.546V242.722H449.566V246.5H431.157ZM489.125 225.051C488.973 223.706 488.348 222.665 487.25 221.926C486.152 221.178 484.769 220.804 483.102 220.804C481.909 220.804 480.877 220.993 480.006 221.372C479.134 221.741 478.457 222.253 477.974 222.906C477.501 223.55 477.264 224.284 477.264 225.108C477.264 225.799 477.425 226.396 477.747 226.898C478.079 227.4 478.509 227.821 479.04 228.162C479.58 228.493 480.157 228.773 480.773 229C481.388 229.218 481.98 229.398 482.548 229.54L485.389 230.278C486.317 230.506 487.269 230.813 488.244 231.202C489.22 231.59 490.124 232.101 490.957 232.736C491.791 233.37 492.463 234.156 492.974 235.094C493.495 236.031 493.756 237.153 493.756 238.46C493.756 240.108 493.33 241.571 492.477 242.849C491.634 244.128 490.408 245.136 488.798 245.875C487.198 246.614 485.261 246.983 482.989 246.983C480.811 246.983 478.926 246.637 477.335 245.946C475.744 245.255 474.499 244.275 473.599 243.006C472.7 241.727 472.203 240.212 472.108 238.46H476.511C476.597 239.511 476.938 240.387 477.534 241.088C478.14 241.779 478.912 242.295 479.849 242.636C480.796 242.968 481.833 243.134 482.96 243.134C484.201 243.134 485.304 242.939 486.27 242.551C487.245 242.153 488.012 241.604 488.571 240.903C489.13 240.193 489.409 239.365 489.409 238.418C489.409 237.556 489.163 236.85 488.67 236.301C488.188 235.752 487.529 235.297 486.696 234.938C485.872 234.578 484.939 234.26 483.898 233.986L480.46 233.048C478.131 232.414 476.284 231.481 474.92 230.25C473.566 229.019 472.889 227.39 472.889 225.364C472.889 223.687 473.344 222.224 474.253 220.974C475.162 219.724 476.393 218.754 477.946 218.062C479.499 217.362 481.251 217.011 483.202 217.011C485.171 217.011 486.909 217.357 488.415 218.048C489.93 218.74 491.123 219.691 491.994 220.903C492.866 222.106 493.32 223.489 493.358 225.051H489.125ZM515.566 221.188V217.409H538.08V221.188H529.004V246.5H524.629V221.188H515.566ZM560.075 246.5H555.416L565.885 217.409H570.956L581.425 246.5H576.766L568.541 222.693H568.314L560.075 246.5ZM560.857 235.108H575.97V238.801H560.857V235.108ZM564.152 214.526L561.283 214.426C561.283 212.864 561.709 211.614 562.561 210.676C563.413 209.739 564.46 209.265 565.7 209.256C566.287 209.256 566.799 209.355 567.234 209.554C567.67 209.743 568.077 209.966 568.456 210.222C568.835 210.477 569.218 210.705 569.607 210.903C569.995 211.093 570.426 211.188 570.899 211.188C571.439 211.178 571.879 210.97 572.22 210.562C572.571 210.146 572.746 209.63 572.746 209.014L575.558 209.199C575.549 210.78 575.118 212.026 574.266 212.935C573.423 213.834 572.381 214.284 571.141 214.284C570.468 214.284 569.91 214.189 569.464 214C569.019 213.801 568.626 213.579 568.286 213.332C567.945 213.077 567.594 212.854 567.234 212.665C566.875 212.466 566.444 212.366 565.942 212.366C565.421 212.366 564.99 212.57 564.649 212.977C564.318 213.384 564.152 213.901 564.152 214.526ZM627.528 231.955C627.528 235.061 626.96 237.731 625.824 239.966C624.688 242.191 623.13 243.905 621.151 245.108C619.181 246.301 616.941 246.898 614.432 246.898C611.913 246.898 609.664 246.301 607.685 245.108C605.715 243.905 604.162 242.187 603.026 239.952C601.889 237.717 601.321 235.051 601.321 231.955C601.321 228.848 601.889 226.183 603.026 223.957C604.162 221.723 605.715 220.009 607.685 218.815C609.664 217.613 611.913 217.011 614.432 217.011C616.941 217.011 619.181 217.613 621.151 218.815C623.13 220.009 624.688 221.723 625.824 223.957C626.96 226.183 627.528 228.848 627.528 231.955ZM623.182 231.955C623.182 229.587 622.798 227.594 622.031 225.974C621.274 224.346 620.232 223.115 618.906 222.281C617.59 221.438 616.098 221.017 614.432 221.017C612.756 221.017 611.259 221.438 609.943 222.281C608.627 223.115 607.585 224.346 606.818 225.974C606.061 227.594 605.682 229.587 605.682 231.955C605.682 234.322 606.061 236.32 606.818 237.949C607.585 239.568 608.627 240.799 609.943 241.642C611.259 242.475 612.756 242.892 614.432 242.892C616.098 242.892 617.59 242.475 618.906 241.642C620.232 240.799 621.274 239.568 622.031 237.949C622.798 236.32 623.182 234.322 623.182 231.955ZM703.749 226.869H699.317C699.146 225.922 698.829 225.089 698.365 224.369C697.901 223.65 697.333 223.039 696.661 222.537C695.988 222.035 695.235 221.656 694.402 221.401C693.578 221.145 692.702 221.017 691.774 221.017C690.098 221.017 688.597 221.438 687.271 222.281C685.955 223.124 684.913 224.36 684.146 225.989C683.389 227.617 683.01 229.606 683.01 231.955C683.01 234.322 683.389 236.32 684.146 237.949C684.913 239.578 685.96 240.809 687.286 241.642C688.611 242.475 690.103 242.892 691.76 242.892C692.679 242.892 693.55 242.769 694.374 242.523C695.207 242.267 695.96 241.893 696.632 241.401C697.304 240.908 697.873 240.307 698.337 239.597C698.81 238.877 699.137 238.053 699.317 237.125L703.749 237.139C703.512 238.569 703.053 239.885 702.371 241.088C701.698 242.281 700.832 243.313 699.771 244.185C698.72 245.046 697.518 245.714 696.163 246.188C694.809 246.661 693.332 246.898 691.732 246.898C689.213 246.898 686.968 246.301 684.999 245.108C683.029 243.905 681.476 242.187 680.339 239.952C679.213 237.717 678.649 235.051 678.649 231.955C678.649 228.848 679.217 226.183 680.354 223.957C681.49 221.723 683.043 220.009 685.013 218.815C686.982 217.613 689.222 217.011 691.732 217.011C693.275 217.011 694.714 217.234 696.05 217.679C697.394 218.115 698.602 218.759 699.672 219.611C700.742 220.454 701.627 221.486 702.328 222.707C703.029 223.92 703.502 225.307 703.749 226.869ZM752.271 231.955C752.271 235.061 751.702 237.731 750.566 239.966C749.43 242.191 747.872 243.905 745.893 245.108C743.923 246.301 741.683 246.898 739.174 246.898C736.655 246.898 734.406 246.301 732.427 245.108C730.457 243.905 728.904 242.187 727.768 239.952C726.631 237.717 726.063 235.051 726.063 231.955C726.063 228.848 726.631 226.183 727.768 223.957C728.904 221.723 730.457 220.009 732.427 218.815C734.406 217.613 736.655 217.011 739.174 217.011C741.683 217.011 743.923 217.613 745.893 218.815C747.872 220.009 749.43 221.723 750.566 223.957C751.702 226.183 752.271 228.848 752.271 231.955ZM747.924 231.955C747.924 229.587 747.54 227.594 746.773 225.974C746.016 224.346 744.974 223.115 743.648 222.281C742.332 221.438 740.841 221.017 739.174 221.017C737.498 221.017 736.002 221.438 734.685 222.281C733.369 223.115 732.327 224.346 731.56 225.974C730.803 227.594 730.424 229.587 730.424 231.955C730.424 234.322 730.803 236.32 731.56 237.949C732.327 239.568 733.369 240.799 734.685 241.642C736.002 242.475 737.498 242.892 739.174 242.892C740.841 242.892 742.332 242.475 743.648 241.642C744.974 240.799 746.016 239.568 746.773 237.949C747.54 236.32 747.924 234.322 747.924 231.955ZM799.223 217.409V246.5H795.189L780.402 225.165H780.132V246.5H775.743V217.409H779.805L794.607 238.773H794.876V217.409H799.223ZM822.191 221.188V217.409H844.705V221.188H835.629V246.5H831.254V221.188H822.191ZM866.7 246.5H862.041L872.51 217.409H877.581L888.05 246.5H883.391L875.166 222.693H874.939L866.7 246.5ZM867.482 235.108H882.595V238.801H867.482V235.108ZM873.291 214.497L876.615 207.949H881.089L876.686 214.497H873.291ZM910.251 246.5V217.409H920.904C922.969 217.409 924.678 217.75 926.032 218.432C927.386 219.104 928.399 220.018 929.072 221.173C929.744 222.319 930.08 223.612 930.08 225.051C930.08 226.263 929.858 227.286 929.413 228.119C928.968 228.943 928.371 229.606 927.623 230.108C926.884 230.6 926.07 230.96 925.18 231.188V231.472C926.146 231.519 927.088 231.831 928.006 232.409C928.934 232.977 929.701 233.787 930.308 234.838C930.914 235.889 931.217 237.168 931.217 238.673C931.217 240.16 930.866 241.495 930.165 242.679C929.474 243.853 928.404 244.786 926.955 245.477C925.506 246.159 923.655 246.5 921.401 246.5H910.251ZM914.64 242.736H920.975C923.077 242.736 924.583 242.329 925.492 241.514C926.401 240.7 926.856 239.682 926.856 238.46C926.856 237.542 926.624 236.699 926.16 235.932C925.696 235.165 925.033 234.554 924.171 234.099C923.319 233.645 922.306 233.418 921.131 233.418H914.64V242.736ZM914.64 229.994H920.521C921.505 229.994 922.391 229.805 923.177 229.426C923.972 229.047 924.602 228.517 925.066 227.835C925.54 227.144 925.776 226.33 925.776 225.392C925.776 224.189 925.355 223.181 924.512 222.366C923.669 221.552 922.377 221.145 920.634 221.145H914.64V229.994ZM958.812 217.409V246.5H954.423V217.409H958.812ZM983.204 246.5V217.409H987.593V242.722H1000.77V246.5H983.204Z" fill="#274F4A"/>
<path d="M417.32 101.876C432.595 101.876 443.944 105.716 451.368 113.396C458.792 120.991 462.504 131.913 462.504 146.164C462.504 155.465 460.669 163.615 457 170.612C453.416 177.524 448.168 182.9 441.256 186.74C434.344 190.58 425.981 192.5 416.168 192.5C414.888 192.5 413.181 192.457 411.048 192.372C408.915 192.287 406.696 192.244 404.392 192.244C402.173 192.159 400.125 192.116 398.248 192.116C395.261 192.116 392.317 192.159 389.416 192.244C386.515 192.244 384.168 192.329 382.376 192.5V189.94C385.277 189.769 387.453 189.428 388.904 188.916C390.44 188.404 391.464 187.38 391.976 185.844C392.488 184.308 392.744 182.004 392.744 178.932V115.444C392.744 112.287 392.488 109.983 391.976 108.532C391.464 106.996 390.44 105.972 388.904 105.46C387.453 104.863 385.277 104.521 382.376 104.436V101.876C384.168 101.961 386.515 102.089 389.416 102.26C392.317 102.345 395.176 102.345 397.992 102.26C400.979 102.175 404.349 102.089 408.104 102.004C411.859 101.919 414.931 101.876 417.32 101.876ZM414.12 104.18C410.195 104.18 407.635 104.905 406.44 106.356C405.245 107.807 404.648 110.751 404.648 115.188V179.188C404.648 183.625 405.245 186.569 406.44 188.02C407.72 189.471 410.323 190.196 414.248 190.196C423.549 190.196 430.76 188.532 435.88 185.204C441 181.791 444.584 176.841 446.632 170.356C448.68 163.871 449.704 155.977 449.704 146.676C449.704 137.119 448.552 129.225 446.248 122.996C444.029 116.681 440.317 111.988 435.112 108.916C429.992 105.759 422.995 104.18 414.12 104.18ZM552.465 101.876V104.436C549.564 104.521 547.345 104.948 545.809 105.716C544.358 106.484 543.377 107.721 542.865 109.428C542.353 111.135 542.097 113.567 542.097 116.724V155.252C542.097 161.225 541.713 166.431 540.945 170.868C540.177 175.305 538.812 179.145 536.849 182.388C534.716 185.972 531.601 188.873 527.505 191.092C523.409 193.225 518.716 194.292 513.425 194.292C509.329 194.292 505.404 193.78 501.649 192.756C497.98 191.817 494.737 190.025 491.921 187.38C489.446 184.991 487.484 182.473 486.033 179.828C484.668 177.183 483.729 173.94 483.217 170.1C482.705 166.26 482.449 161.439 482.449 155.636V115.444C482.449 112.287 482.193 109.983 481.681 108.532C481.169 106.996 480.145 105.972 478.609 105.46C477.158 104.863 474.982 104.521 472.081 104.436V101.876C473.873 101.961 476.22 102.047 479.121 102.132C482.022 102.217 485.137 102.26 488.465 102.26C491.452 102.26 494.396 102.217 497.297 102.132C500.284 102.047 502.758 101.961 504.721 101.876V104.436C501.82 104.521 499.601 104.863 498.065 105.46C496.614 105.972 495.633 106.996 495.121 108.532C494.609 109.983 494.353 112.287 494.353 115.444V157.812C494.353 162.164 494.566 166.303 494.993 170.228C495.42 174.068 496.273 177.481 497.553 180.468C498.918 183.369 500.966 185.673 503.697 187.38C506.428 189.001 510.054 189.812 514.577 189.812C521.062 189.812 526.054 188.404 529.553 185.588C533.137 182.687 535.612 178.719 536.977 173.684C538.428 168.649 539.153 162.975 539.153 156.66V116.724C539.153 113.567 538.769 111.135 538.001 109.428C537.318 107.721 536.124 106.484 534.417 105.716C532.71 104.948 530.406 104.521 527.505 104.436V101.876C529.041 101.961 531.046 102.047 533.521 102.132C536.081 102.217 538.428 102.26 540.561 102.26C542.78 102.26 544.956 102.217 547.089 102.132C549.308 102.047 551.1 101.961 552.465 101.876ZM602.613 100.084C610.72 100.084 617.802 101.919 623.861 105.588C630.005 109.257 634.741 114.548 638.069 121.46C641.482 128.287 643.189 136.607 643.189 146.42C643.189 155.977 641.44 164.34 637.941 171.508C634.528 178.676 629.749 184.265 623.605 188.276C617.461 192.287 610.421 194.292 602.485 194.292C594.378 194.292 587.253 192.457 581.109 188.788C575.05 185.119 570.314 179.828 566.901 172.916C563.573 166.004 561.909 157.684 561.909 147.956C561.909 138.399 563.658 130.036 567.157 122.868C570.656 115.7 575.434 110.111 581.493 106.1C587.637 102.089 594.677 100.084 602.613 100.084ZM602.101 102.388C596.554 102.388 591.733 104.308 587.637 108.148C583.541 111.988 580.341 117.279 578.037 124.02C575.818 130.761 574.709 138.569 574.709 147.444C574.709 156.489 575.946 164.383 578.421 171.124C580.981 177.78 584.394 182.943 588.661 186.612C593.013 190.196 597.792 191.988 602.997 191.988C608.544 191.988 613.365 190.068 617.461 186.228C621.557 182.388 624.714 177.097 626.933 170.356C629.237 163.529 630.389 155.721 630.389 146.932C630.389 137.801 629.109 129.908 626.549 123.252C624.074 116.596 620.704 111.476 616.437 107.892C612.17 104.223 607.392 102.388 602.101 102.388Z" fill="#274F4A"/>
<path d="M740.755 192.5V189.94C743.656 189.769 745.832 189.428 747.283 188.916C748.819 188.404 749.843 187.38 750.355 185.844C750.867 184.308 751.123 182.004 751.123 178.932V115.444C751.123 112.287 750.867 109.983 750.355 108.532C749.843 106.996 748.819 105.972 747.283 105.46C745.832 104.863 743.656 104.521 740.755 104.436V101.876C742.718 101.961 745.192 102.047 748.179 102.132C751.166 102.217 754.11 102.26 757.011 102.26C760.339 102.26 763.454 102.217 766.355 102.132C769.256 102.047 771.603 101.961 773.395 101.876V104.436C770.494 104.521 768.275 104.863 766.739 105.46C765.288 105.972 764.307 106.996 763.795 108.532C763.283 109.983 763.027 112.287 763.027 115.444V178.932C763.027 182.004 763.283 184.308 763.795 185.844C764.307 187.38 765.288 188.404 766.739 188.916C768.275 189.428 770.494 189.769 773.395 189.94V192.5C771.603 192.329 769.256 192.244 766.355 192.244C763.454 192.159 760.339 192.116 757.011 192.116C754.11 192.116 751.166 192.159 748.179 192.244C745.192 192.244 742.718 192.329 740.755 192.5ZM687.251 192.5V189.94C690.152 189.769 692.328 189.428 693.779 188.916C695.315 188.404 696.339 187.38 696.851 185.844C697.363 184.308 697.619 182.004 697.619 178.932V115.444C697.619 112.287 697.363 109.983 696.851 108.532C696.339 106.996 695.315 105.972 693.779 105.46C692.328 104.863 690.152 104.521 687.251 104.436V101.876C689.043 101.961 691.39 102.047 694.291 102.132C697.192 102.217 700.307 102.26 703.635 102.26C706.622 102.26 709.566 102.217 712.467 102.132C715.454 102.047 717.928 101.961 719.891 101.876V104.436C716.99 104.521 714.771 104.863 713.235 105.46C711.784 105.972 710.803 106.996 710.291 108.532C709.779 109.983 709.523 112.287 709.523 115.444V178.932C709.523 182.004 709.779 184.308 710.291 185.844C710.803 187.38 711.784 188.404 713.235 188.916C714.771 189.428 716.99 189.769 719.891 189.94V192.5C717.928 192.329 715.454 192.244 712.467 192.244C709.566 192.159 706.622 192.116 703.635 192.116C700.307 192.116 697.192 192.159 694.291 192.244C691.39 192.244 689.043 192.329 687.251 192.5ZM705.043 148.212V145.652H755.603V148.212H705.043ZM862.59 101.876V104.436C859.689 104.521 857.47 104.948 855.934 105.716C854.483 106.484 853.502 107.721 852.99 109.428C852.478 111.135 852.222 113.567 852.222 116.724V155.252C852.222 161.225 851.838 166.431 851.07 170.868C850.302 175.305 848.937 179.145 846.974 182.388C844.841 185.972 841.726 188.873 837.63 191.092C833.534 193.225 828.841 194.292 823.55 194.292C819.454 194.292 815.529 193.78 811.774 192.756C808.105 191.817 804.862 190.025 802.046 187.38C799.571 184.991 797.609 182.473 796.158 179.828C794.793 177.183 793.854 173.94 793.342 170.1C792.83 166.26 792.574 161.439 792.574 155.636V115.444C792.574 112.287 792.318 109.983 791.806 108.532C791.294 106.996 790.27 105.972 788.734 105.46C787.283 104.863 785.107 104.521 782.206 104.436V101.876C783.998 101.961 786.345 102.047 789.246 102.132C792.147 102.217 795.262 102.26 798.59 102.26C801.577 102.26 804.521 102.217 807.422 102.132C810.409 102.047 812.883 101.961 814.846 101.876V104.436C811.945 104.521 809.726 104.863 808.19 105.46C806.739 105.972 805.758 106.996 805.246 108.532C804.734 109.983 804.478 112.287 804.478 115.444V157.812C804.478 162.164 804.691 166.303 805.118 170.228C805.545 174.068 806.398 177.481 807.678 180.468C809.043 183.369 811.091 185.673 813.822 187.38C816.553 189.001 820.179 189.812 824.702 189.812C831.187 189.812 836.179 188.404 839.678 185.588C843.262 182.687 845.737 178.719 847.102 173.684C848.553 168.649 849.278 162.975 849.278 156.66V116.724C849.278 113.567 848.894 111.135 848.126 109.428C847.443 107.721 846.249 106.484 844.542 105.716C842.835 104.948 840.531 104.521 837.63 104.436V101.876C839.166 101.961 841.171 102.047 843.646 102.132C846.206 102.217 848.553 102.26 850.686 102.26C852.905 102.26 855.081 102.217 857.214 102.132C859.433 102.047 861.225 101.961 862.59 101.876ZM871.376 101.876C873.168 101.961 875.515 102.047 878.416 102.132C881.317 102.217 884.176 102.26 886.992 102.26C891.003 102.26 894.843 102.217 898.512 102.132C902.181 102.047 904.784 102.004 906.32 102.004C915.28 102.004 922.021 103.881 926.544 107.636C931.067 111.391 933.328 116.212 933.328 122.1C933.328 125.087 932.688 128.031 931.408 130.932C930.213 133.748 928.165 136.351 925.264 138.74C922.448 141.044 918.651 142.921 913.872 144.372V144.628C920.613 145.481 925.861 147.103 929.616 149.492C933.456 151.796 936.144 154.527 937.68 157.684C939.216 160.841 939.984 164.169 939.984 167.668C939.984 172.532 938.747 176.841 936.272 180.596C933.883 184.265 930.384 187.167 925.776 189.3C921.168 191.433 915.664 192.5 909.264 192.5C907.387 192.5 904.571 192.457 900.816 192.372C897.061 192.201 892.539 192.116 887.248 192.116C884.261 192.116 881.317 192.159 878.416 192.244C875.515 192.244 873.168 192.329 871.376 192.5V189.94C874.277 189.769 876.453 189.428 877.904 188.916C879.44 188.404 880.464 187.38 880.976 185.844C881.488 184.308 881.744 182.004 881.744 178.932V115.444C881.744 112.287 881.488 109.983 880.976 108.532C880.464 106.996 879.44 105.972 877.904 105.46C876.453 104.863 874.277 104.521 871.376 104.436V101.876ZM903.12 104.436C899.195 104.436 896.635 105.161 895.44 106.612C894.245 108.063 893.648 111.007 893.648 115.444V178.932C893.648 181.919 893.904 184.18 894.416 185.716C894.928 187.252 895.867 188.276 897.232 188.788C898.597 189.3 900.603 189.556 903.248 189.556C911.611 189.556 917.669 187.636 921.424 183.796C925.264 179.871 927.184 174.324 927.184 167.156C927.184 160.585 925.392 155.508 921.808 151.924C918.309 148.34 912.507 146.548 904.4 146.548H891.216C891.216 146.548 891.216 146.207 891.216 145.524C891.216 144.756 891.216 144.372 891.216 144.372H902.224C907.259 144.372 911.141 143.433 913.872 141.556C916.603 139.593 918.48 137.033 919.504 133.876C920.528 130.633 921.04 127.177 921.04 123.508C921.04 117.193 919.632 112.457 916.816 109.3C914.085 106.057 909.52 104.436 903.12 104.436Z" fill="#D9988A"/>
</g>
<defs>
<clipPath id="clip0_28_94">
<rect width="683" height="266" fill="white" transform="translate(320 13.5)"/>
</clipPath>
</defs>
</svg>
