<svg width="307" height="267" viewBox="0 0 307 267" fill="none" xmlns="http://www.w3.org/2000/svg">
<path d="M239.5 45.5029V43.5029H306V45.5029C293.504 46.7908 289.588 51.2407 289.5 67.5029V239.503C289.354 254.116 293.662 258.412 306.5 261.503V263.503H238.5V261.503C254.597 257.338 255.49 251.529 255.5 239.503V67.5029C255.733 55.9914 253.468 46.6207 239.5 45.5029Z" fill="#274F4A" stroke="#274F4A"/>
<path d="M255 150.503V143.503C201.423 139.174 151.984 134.469 109 141.003C52.9999 152.003 -0.111481 193.607 0.999803 232.503C1.58526 252.995 20.9998 266.638 52.9998 265.503C123.5 263.003 185.5 213.503 205 161.003C189.416 162.818 178.276 162.661 161.5 161.003C169 193.003 115.5 254.003 66.4997 252.503C43.9998 252.503 36.1271 237.216 36.9997 224.503C38.4998 189.003 76.0731 157.547 141.5 150.503C176.758 147.776 210.312 150.104 255 150.503Z" fill="#274F4A" stroke="#274F4A"/>
<path d="M205.5 128.003C211.094 47.1978 164.02 0.562145 86 1.00293L0.5 0.502934V2.50298C13.9499 3.33558 22.5248 7.36422 22 40.503V170.003C34.2902 156.346 43.0117 151.175 56.5 146.503V10.0029C56.5 10.0029 90 9.50293 97 10.0029C149 14.5029 172.5 63.0029 163 128.003C181.153 125.505 187.242 125.277 205.5 128.003Z" fill="#D9988A" stroke="#D9988A"/>
<circle cx="113.5" cy="99.5029" r="14.5" fill="#D9988A" stroke="#D9988A"/>
</svg>
